<?xml version="1.0" encoding="UTF-8"?>
<svg data-bbox="-908.82 4.785 1455.884 710.096" height="720" width="553" xmlns="http://www.w3.org/2000/svg" data-type="ugc">
    <g>
        <path d="m493.05 420.138.164-.493.164-.33.165-.493v-.494l.165-.494.164-.493.165-.33.164-.493.165-.494.164-.493.33-.494.164-.33.165-.493.164-.164v-.165l.165-.165.164-.329v-.164l.165-.165c2.797-3.95 5.43-8.557 9.05-10.696 3.292-2.304 3.95-6.418 5.596-13.165.493-11.849 2.14-12.507 2.633-13.823.493-1.317 1.316-5.266 4.114-10.203 1.975-3.62 4.443-10.861 3.62-13-1.81-3.62-3.291-6.748-5.101-13.001-2.469-14.81-.494-19.747 2.633-24.355 4.443-6.747 7.24-10.861 11.848-13.165 2.14-.987 1.81-5.101 1.481-7.899-1.152-7.24.988-6.582 2.14-10.367 1.316-3.785 2.303-8.887 2.303-10.039 0-1.316-.658-4.772-.987-6.417-.494-2.962-.987-7.241-.165-8.887 1.317-2.304 2.633-4.937 2.469-7.24 0-.988 1.152-2.469 1.646-4.114.493-1.482 1.48-5.102 1.48-7.9 0-.822.988-6.582 1.646-10.696 1.481-8.063.494-12.013-.164-14.317-.659-3.291-2.633-4.937-2.469-6.089 0-1.48-.329-6.088-.658-8.886-.165-1.645 6.582-11.025 7.899-12.836.494-.987-.494-7.405-.494-8.886 0-1.316-1.645-8.063-1.645-9.874 0-1.974.329-3.126.329-4.936-.165-1.975-.33-4.773-.494-8.393-.33-6.582.165-13.33.33-15.14 0-1.48-2.47-1.48-6.912-3.785-4.444-2.303-13.988-11.848-15.634-12.506-1.645-.823-9.38-2.14-13.658-2.14-3.95 0-12.672 1.975-16.621 2.633-3.785.494-8.557-1.152-10.861-1.81-2.304-.658-6.418-1.81-8.228-1.48-5.266.493-13.823.657-17.444 0-4.278-.824-7.899-1.976-10.038-3.292-1.81-1.317-2.468-.823-4.772-2.962-1.81-1.646-1.975-2.633-3.456-2.798-1.317-.329-13.823-1.316-16.127-3.62-2.304-2.304-5.43-6.253-7.24-14.975-1.811-8.393 1.151-14.317 4.278-15.963 4.937-2.468 11.684-6.582 15.304-6.911 1.646-.165-1.975-6.583-3.785-12.671-.823-2.304-4.279-1.81-12.177-10.532-3.456-3.95-9.71-11.684-11.19-14.317-1.646-2.633.164-4.114-1.482-4.279-2.139-.164-9.215.165-20.405-1.81-11.19-2.14-18.431-5.266-21.887-6.253-3.291-.988-11.19-3.785-13.659-4.608-2.468-.823-7.405-2.798-11.848-4.443-4.279-1.481-6.253-4.937-8.393-5.102-2.303 0-10.532 5.76-20.405 7.077-9.874 1.316-13.33-.988-18.596-1.81-5.595-.823-10.696-1.81-17.279-2.304-6.417-.494-25.507 2.962-28.798 3.455-3.291.33-7.899 2.633-12.013 2.633-2.633 0-17.279 4.279-19.747 4.773-2.633.493-6.254-.823-8.064-.165-2.962.823-7.24 1.81-8.721 2.14-1.152.328-20.406 6.746-23.862 7.405-3.785.822-9.215 2.633-13.658 4.278-2.963 1.317-4.773 3.291-7.241 4.937-8.228 5.76-10.532 5.924-14.481 7.24-2.634.824-3.95 1.81-9.545 2.14-5.76.33-7.405 1.481-7.405 2.304 0 3.95-1.317 11.848.164 12.507 3.127 1.645 10.861 14.316 11.19 22.38.494 8.557-.658 14.646-.987 17.279-.33 2.304-.658 3.62-1.81 4.937-.988 1.316-7.9 3.455-12.013 3.95-4.279.164-6.418.328-21.393-3.621-11.684-2.962-12.671-4.114-14.152-5.76-1.152-1.81-4.114-3.291-6.09-4.278-2.139-.988-4.278-1.482-6.417-3.456-1.975-1.81-11.026 2.633-23.532 3.62-2.304.165-6.583 7.735-14.317 11.684-6.089 2.962-8.887 4.114-10.861 5.595-5.595 3.785-12.178 4.443-11.355 6.089 1.316 3.126-1.152 4.772-.33 12.507 1.153 13-1.81 19.582-1.81 25.836-.164 3.126 3.456 6.911 5.102 8.228 1.481 1.316 4.443 5.76 5.266 9.05.658 3.292-.494 13.988-2.14 22.875-1.645 9.05-2.632 18.266-2.303 21.557.164 2.14 2.797 6.583 3.95 9.051 1.645 2.962 4.772 13.659 4.936 19.09.165 4.936-1.152 11.19-1.152 12.177 0 .987 1.646 5.101 3.291 7.24 1.81 2.633 5.925 11.355 6.912 13.494 1.481 2.963 1.975 6.747 1.975 6.747s-.494 4.28-.658 6.912c-.165 2.633-1.152 11.684-2.14 23.368-.822 11.354-.822 20.899.165 21.886 1.316 1.317 3.785 3.456 4.772 4.937.823 1.646 8.064 14.153 8.887 15.963.822 1.975 2.632 6.911 3.29 10.367.659 3.62 1.646 10.697 1.975 12.507.494 2.468 3.456 17.608 3.95 20.076.658 3.127 1.81 11.684 2.304 15.14.329 3.95.658 10.367.987 11.684.33 1.152 1.317 3.456 2.469 6.089 1.316 2.962 3.62 11.683 4.114 13.658.493 1.975-.33 4.608.164 6.254.658 1.81 2.633 3.29 3.291 4.772.659 1.48 5.925 12.013 8.228 15.633 2.14 3.127 9.71 17.608 11.849 22.38.494.659.494 1.152.494 1.482 0 1.81.329 3.29 1.316 3.949.987.658 2.633 4.114 3.95 4.279 1.81.329 3.62 1.316 4.443 2.303.822 1.317 7.405 7.735 9.873 10.368 2.469 2.633 4.114 4.278 3.785 6.582-.329 1.81-.164 4.773.823 5.76 1.81 1.81 4.608 3.291 9.874 10.203 4.443 5.924 6.089 10.86 8.392 14.975 1.317 2.468 3.292 9.38 3.292 11.19 0 1.81 1.152 3.127 2.139 4.114 1.152 1.481 4.114 3.95 6.253 4.937 1.152.494 4.443 3.456 7.406 6.911 2.962 3.292 5.43 6.09 6.747 13.824.493 2.303.493 4.278 1.316 4.443.823.164 2.798.658 3.291 1.645.658.823.658 2.14 1.975 2.963 3.785 2.632 4.279 5.265 4.772 7.076.165 1.645.988 6.418 1.481 8.392.165 1.481 7.9 9.71 9.874 12.671 1.646 2.633 4.114 3.127 9.71 6.254 5.43 2.962 5.759 4.937 6.088 6.418.329 1.645.164 9.38.658 10.203 1.317 1.81 2.14.987 4.279 3.62s4.937 6.418 6.253 8.228c1.317 1.81 12.507 8.722 18.596 14.317 1.48 1.48 5.1 5.266 7.57 7.076 1.81 1.152 4.278 2.304 6.253 3.291 2.139.987 5.266 1.975 11.519 6.418 1.481.823 5.101 2.633 7.24 3.95 2.634 1.645 10.039 5.76 12.836 5.76 5.76 0 8.722 2.303 12.013 1.48 13.824-2.633 16.95-4.607 20.077-7.57 2.798-2.962 7.57-9.544 9.05-10.696 1.646-1.481 6.419-7.076 10.368-9.71 10.861-10.531 9.71-8.392 16.456-12.835 3.62-2.468 6.912-3.291 9.051-6.418 3.291-5.43 8.393-13 9.216-16.291.658-1.975 1.81-2.469 2.633-4.608.658-1.81.329-3.291 2.633-4.279 1.81-.823 6.088-5.76 8.392-6.911 1.481-.823.33-5.266 2.14-7.241 1.151-1.481 6.582-5.101 11.354-8.557 9.051-6.418 15.47-15.14 18.925-18.431 3.62-3.785 1.81-9.216.658-10.861l2.633-3.95s4.772-5.266 7.57-8.228c2.797-2.633 10.367-12.177 12.342-14.152 1.646-1.481.658-9.71.987-12.013.165-2.468 5.595-6.582 7.406-8.393 1.81-1.81 2.633-3.455 2.797-6.911.33-3.291 2.633-17.937 3.456-20.57.494-1.317.987-2.304 1.646-3.292 1.48-2.304 3.126-3.95 4.607-5.595 1.81-2.139 10.861-13 15.14-16.785l.823-.494c2.14-1.48.823-3.126.823-5.101 0-.987.822-2.962 2.139-5.101 1.152-2.304 2.797-5.102 4.114-6.418 3.785-4.279 3.127-6.747 9.38-11.355 2.304-1.646 1.48-6.583 1.48-6.583s-.164-1.81 1.153-4.772c1.316-2.962 5.924-8.557 8.722-11.52 1.152-1.151 2.139-4.771 2.139-6.582 0-1.645-.33-4.936 1.481-8.392.33-.658.658-1.317 1.152-1.975.329-.494.658-1.316.987-1.975z" font-weight="400" fill="#ffffff" fill-opacity=".961" stroke="#99542c" stroke-width="10.239" stroke-miterlimit="10.433"/>
        <path font-weight="400" fill="#ffffff" d="M-908.82 253.23z"/>
        <path d="m110.609 423.923.164-.658c-.164-1.316-2.304-1.316-2.633-2.14-.823-2.797-2.14-3.29-2.797-3.949-1.646-1.48-3.292-.658-4.114-.987-.823-.33-1.975-.658-1.481-2.798 0-.329-.165-.493-.33-.329l-1.152.165-1.316-.165-1.152.165s-2.797 0-7.24 1.48c-.988 0-2.305 1.153-3.95 1.153-1.646-.165-3.456 1.645-5.266 1.645-1.317.165-4.772 4.608-7.57 5.102-1.646.164 0 .329-9.38 3.785-5.266 1.81-3.785 1.48-8.228 3.95.987.328 5.101.164 8.557-.165 6.089-.494 6.254-.494 7.57-.823 6.089-.823 15.633-1.317 19.418-2.14 2.798-.658 4.773.988 7.406.165 1.151-.494 2.962-.494 3.784-.494 1.317-.164 1.646 0 2.469-.164 0 0 4.114.164 4.937-.494 1.316-.658 1.81-.987 1.974-1.481l.33-.823z" font-weight="400" fill="#ffffff"/>
        <path d="M492.226 421.949v-.33h.165v-.329l.165-.164v-.329l.164-.165v-.329l.165-.165.164-.164v-.165c.823-2.304 1.481-5.266 2.798-7.076 2.962-3.95 5.43-8.393 9.05-10.697 3.292-2.303 3.95-6.417 5.596-13.164.493-11.849 2.14-12.507 2.797-13.824.494-1.316 1.317-5.265 3.95-10.202 1.975-3.62 4.443-11.026 3.62-13-1.81-3.621-3.291-6.748-5.101-13.001-2.469-14.81-.494-19.747 2.633-24.355 4.443-6.747 7.24-11.026 11.848-13.165 2.14-.987 1.81-5.101 1.481-7.899-1.152-7.24.988-6.582 2.304-10.367 1.152-3.785 2.14-8.722 2.14-10.203 0-1.317-.659-4.443-.988-6.254-.494-2.962-.823-7.405-.165-8.886 1.481-2.304 2.633-5.101 2.633-7.24 0-.988.988-2.469 1.482-3.95.493-1.646 1.48-5.266 1.48-8.064 0-.822 1.152-6.582 1.81-10.696 1.317-8.063.494-12.013-.164-14.317-.823-3.456-2.633-4.937-2.633-6.089 0-1.48-.329-6.088-.658-8.886-.165-1.646 6.747-11.026 7.899-13 .658-.823-.494-7.24-.494-8.722 0-1.317-1.645-8.228-1.645-10.038 0-1.81.329-2.962.329-4.773 0-1.974-.33-4.772-.33-8.392-.329-6.583.165-13.33.165-15.14 0-1.48-2.468-1.48-6.911-3.785-4.444-2.304-13.988-11.684-15.634-12.506-1.645-.659-9.38-2.14-13.494-2.14-4.114 0-12.836 1.975-16.62 2.633-3.95.494-8.722-1.152-10.862-1.81-2.468-.658-6.582-1.81-8.392-1.645-5.266.658-13.823.822-17.28.164-4.442-.823-8.063-1.975-10.202-3.291-1.81-1.317-2.468-.823-4.608-2.798-1.974-1.81-2.139-2.797-3.62-2.962-1.317-.329-13.823-1.316-16.127-3.62-2.304-2.304-5.43-6.254-7.24-14.975-1.811-8.228 1.151-14.317 4.278-15.963 4.937-2.468 11.684-6.582 15.304-6.911 1.646-.165-1.975-6.418-3.785-12.672-.823-2.303-4.279-1.81-12.177-10.531-3.456-3.95-9.545-11.684-11.19-14.317-1.646-2.633.164-4.114-1.482-4.279-2.139-.165-9.215.165-20.405-1.975-11.026-1.974-18.431-4.937-21.887-6.088-3.291-.988-11.19-3.62-13.659-4.608-2.468-.823-7.405-2.962-11.848-4.443-4.279-1.646-6.253-4.937-8.393-5.102-2.303 0-10.532 5.76-20.405 7.076-9.874 1.317-13.165-.987-18.596-1.81-5.595-.658-10.696-1.81-17.114-2.304-6.582-.493-25.507 2.963-28.798 3.456-3.292.33-8.064 2.633-12.178 2.633-2.633 0-17.279 4.279-19.747 4.772-2.633.494-6.254-.822-8.064-.164-2.797.823-7.24 1.81-8.557 2.14-1.316.164-20.57 6.746-23.861 7.404-3.95.823-9.38 2.633-13.823 4.28-2.963 1.15-4.773 3.29-7.241 4.936-8.228 5.76-10.532 6.089-14.481 7.24-2.469.659-3.95 1.81-9.545 1.975-5.76.33-7.405 1.481-7.24 2.633-.165 3.785-1.317 11.52 0 12.342 3.126 1.646 10.86 14.317 11.354 22.38.329 8.558-.658 14.647-1.152 17.28-.33 2.139-.658 3.62-1.646 4.937-1.152 1.316-8.063 3.62-12.177 3.784-4.279.33-6.418.494-21.393-3.29-11.52-3.127-12.671-4.28-13.988-6.09-1.316-1.645-4.278-3.126-6.253-4.114-2.14-.987-4.279-1.48-6.254-3.62-1.974-1.646-11.19 2.798-23.696 3.785-2.304.165-6.583 7.734-14.153 11.684-6.088 2.962-9.05 4.114-11.025 5.595-5.595 3.785-12.013 4.443-11.355 6.089 1.316 3.126-1.152 4.772-.33 12.506 1.153 12.836-1.81 19.583-1.81 25.836 0 3.127 3.456 6.912 5.102 8.229 1.646 1.316 4.443 5.924 5.266 9.05.823 3.292-.494 13.988-2.14 22.71-1.645 9.38-2.632 18.43-2.303 21.722.164 2.304 2.797 6.583 4.114 9.05 1.481 2.963 4.608 13.495 4.772 19.09.33 5.101-1.152 11.19-1.152 12.178 0 1.152 1.81 5.101 3.291 7.24 1.81 2.469 5.925 11.355 7.077 13.494 1.48 2.962 1.81 6.583 1.81 6.583s-.33 4.443-.658 7.076c-.165 2.633-1.152 11.848-1.975 23.368-.987 11.354-.987 20.899.164 21.886 1.152 1.317 3.62 3.456 4.608 5.102.823 1.48 8.064 13.987 8.887 15.962.822 1.81 2.632 6.583 3.29 10.203.659 3.62 1.646 10.696 2.14 12.507.33 2.304 3.291 17.608 3.785 20.076.823 3.127 1.975 11.849 2.304 15.14.329 3.95.658 10.367.987 11.52h-.164c4.278-2.47 2.962-2.14 8.228-3.95 9.38-3.456 7.734-3.62 9.38-3.785 2.797-.494 6.253-4.937 7.57-5.102 1.645 0 3.62-1.81 5.1-1.81 1.646.165 3.127-.987 3.95-.987 4.608-1.481 7.241-1.481 7.241-1.481l7.57-1.481c3.127-.494 78.99-27.482 93.142-33.077 13.987-5.595 1.152 4.114 19.582-2.633 18.267-6.747 29.95-13 29.95-13 4.608-1.482 27.318-13.165 27.318-13.165s5.101-2.633 9.38-2.304c5.266.329 9.05-.165 10.696-.33 1.481-.329 2.633-.822 7.076-.658 4.608.165 6.418.823 10.203.165 3.456-.494 3.95-3.127 5.595-3.62 1.481-.33 3.456-1.481 4.279-2.469 2.14-2.797 4.443-1.975 5.43-3.785 1.81-2.962 4.115-1.974 9.051-5.924.988-.823 5.925.33 7.57-.658 1.81-.823 8.887-6.418 10.367-7.241 1.646-1.152 2.633-3.291 4.608-2.962 4.279.987 4.937-.33 7.076 1.646 3.127 2.962 10.203 7.898 10.532 8.557 1.317 3.456 6.583 3.62 6.747 8.228.165 2.468 2.469 2.14 2.14 5.924-.165.987 6.911-.33 9.873 2.304 1.975 1.646 9.545 8.886 10.697 9.38 1.975 1.152 5.43 4.114 6.911 4.772 3.127 1.317 15.305 8.228 18.925 13 1.646 2.14 4.608 1.646 6.418 2.963 4.772 3.29 17.279 11.025 18.924 13.987 1.481 2.633 12.836 10.532 13.33 12.342.329 2.14 5.595 4.608 5.924 6.418.165 1.81 7.24 6.583 9.874 8.558 3.456 2.468 2.468 1.645 6.089 5.43l1.151-1.645z" font-weight="400" fill="#c56c39"/>
        <path d="m462.44 479.545.165-.33.165-.493.33-.494.164-.329.329-.493.164-.494.33-.33.329-.493.164-.494.33-.329.328-.329.165-.493.33-.33v-.164l.164-.165.164-.164.165-.165v-.164l.164-.165c3.95-4.114 3.292-6.582 9.545-11.19 2.304-1.646 1.316-6.747 1.316-6.747s0-1.646 1.317-4.608c1.152-2.962 5.924-8.557 8.722-11.52.987-1.151 1.974-4.936 1.974-6.746 0-1.481-.164-4.772 1.646-8.393v-.493c-3.62-3.785-2.468-2.633-5.924-5.102-2.469-1.975-9.71-6.911-9.874-8.557-.164-1.81-5.43-4.279-5.924-6.583-.494-1.645-11.849-9.544-13.33-12.177-1.48-3.127-14.152-10.697-18.924-14.152-1.81-1.317-4.772-.659-6.418-2.798-3.62-4.772-15.798-11.684-18.925-13.165-1.316-.494-4.772-3.456-6.911-4.608-1.152-.658-8.722-7.734-10.697-9.544-2.962-2.469-9.873-1.152-9.873-2.304.329-3.62-1.975-3.291-1.975-5.76-.165-4.607-5.595-4.772-6.912-8.228-.329-.658-7.405-5.76-10.367-8.557-2.304-1.975-2.962-.658-7.24-1.645-1.976-.33-2.963 1.81-4.444 2.797-1.645.987-8.722 6.582-10.367 7.405-1.81.823-6.747-.164-7.735.494-4.936 4.114-7.24 3.127-8.886 5.924-1.152 1.975-3.456 1.152-5.595 3.95-.658.823-2.798 2.139-4.114 2.468-1.646.494-2.304 2.962-5.595 3.456-3.95.658-5.76.164-10.203 0-4.608-.165-5.76.329-7.24.658-1.646.165-5.267.494-10.533.165-4.443-.165-9.544 2.304-9.544 2.304s-22.545 11.683-27.317 13.329l-2.14.987c-.164 1.481-1.645 4.773-3.126 5.596-1.317.822-2.963.329-3.785 1.48-.658 1.317.987 2.14 1.48 2.798.33.658 1.153 2.962-.164 3.95-1.645 1.152-2.304 2.962-3.126 3.949-.823 1.152-4.115 2.798-3.292 4.443.659 1.481 1.317 2.633 1.481 4.114.494 2.962-.987 4.443-1.152 5.595-.164 1.317 1.317 1.152.165 2.962-1.481 2.14-2.798 2.798-1.975 4.279.658 1.481-2.468.823-3.126.987-.823.33-1.481 1.152-1.81 2.633-.165 1.317.329 3.62-2.304 3.62s-6.418 0-7.241.824c-.987.822.658 2.303-.494 2.962-1.316.987-1.975 0-2.962 0-1.152 0-2.468 1.316-2.468 1.316s-.823 1.317-1.152 2.14c-.494.822-1.975 1.316-2.14 2.303-.164.823.823 1.317-.164 2.633-.494.988-1.646 1.481-2.798 2.14-1.152.658-1.645-.494-2.304 1.151-.493 1.317-.164 1.81-.822 2.634-.988 1.151-2.962 1.48-4.114 2.139-4.608 1.645-9.874 2.468-10.861 2.468-.988 0-7.077-.164-7.077-2.14-.329-3.62-3.29-3.949-3.62-5.1-.987-2.633-4.443-3.785-4.443-5.596-.165-2.468-9.051-1.645-9.38 0-.165 1.482 0 9.545 0 11.52-.165 3.126 0 6.911.658 23.038.33 10.697-.164 12.836 1.152 23.697.823 6.418 2.14 9.545 3.127 11.19l2.468-.658c-.329 0 3.62-.823 1.975-2.468 2.304-.165 2.468-2.304-1.481-2.469 2.797-.658 2.633-2.14.987-2.468 2.304-.658 3.291-1.481 2.304-2.798 1.975.33 1.317-1.48.823-2.139 1.48.33 2.468-.33 2.14-1.317 2.303 1.646 4.113-.164 1.316-1.316 1.974-.165 1.316-.987-1.646-1.481 1.152.33 3.291-.658 2.633-1.646 1.481 1.152 3.456-.658.987-2.633 1.646-.493 2.304-3.126 2.304-3.62.165 1.646-.493 4.772 1.317 4.279-.988.987-.823 1.974 2.468 1.974-2.962.494-3.785 2.633 0 2.962-1.48 1.152 2.304.823 3.95 1.481-2.469.33-2.798.988-1.81 1.482-2.469.822.329 1.81 4.114 2.303-3.62.165-4.444 2.469-2.798 3.456.823.658 2.14.33 3.291.165.988-.494 1.481-.823 2.633-1.317.988-.329 1.646-1.316-1.48-2.304 1.48.33 3.949.165 3.126-.493 3.62-.494 3.456-2.304-1.646-3.95 1.481.494 7.076-.329 4.279-1.81 1.316-.329.164-2.633-1.646-2.468 1.152-.494 1.481-2.469-.658-3.127 2.14 0 4.279-.33 2.304-1.481 1.316.164 2.304-.494 1.81-1.317 2.797.494 2.14-1.151.823-1.81.658-.329 2.797-.987.493-2.468 1.81.164 3.785-.165 3.456-.988 2.14-.164 3.62-2.468-.164-2.139.493-.493.987-1.48-.33-2.14 2.798 0 3.95-3.62 2.963-4.607 1.48.165 1.152-4.114.987-5.43.987 2.468 1.481 3.95 2.633 3.95-1.481.986.165 2.632 1.81 3.126-1.48.658 1.152 2.468 2.469 2.139-2.304 1.152-2.469 3.785 2.962 5.43-2.304-.329-.988 1.975 0 2.634-.823-.659-3.785-.659-2.962.658-1.152.329-1.81 2.468 1.645 1.48-.329.824 1.481 1.646 3.95 1.976-1.481 1.48-.823 2.139 1.152 2.468-.823.494-1.81 1.152-.33 2.14-1.316.987-2.962 3.126 2.963 3.29-2.633.988-.33 1.646 1.152 2.469-4.937-.165-3.456 3.785.164 3.95-1.975.658-.823 2.468 1.481 3.29-1.316 1.153 3.291 1.646 1.975-.658 2.797-.329 4.114-2.139 2.14-2.633 3.62-.987 1.316-5.266.164-5.101 1.645-.33 3.785-1.646 2.139-2.797 2.469.493 5.266-1.81-1.152-2.304 5.101-.659 3.785-2.798 1.481-3.62.658-.165 6.747.493 4.279-1.975 1.645-.494-.165-1.481-2.14-1.481 1.481-.33 3.62-1.975 1.646-2.963.823.165 1.81-.164.987-1.974.823.658 4.608.822 3.62-1.152 1.317-.494.165-1.481-.657-2.304 2.139-.823.822-3.785 0-4.443 11.19-.494.987-4.279.164-4.608 2.469 0 5.102-.658 3.785-1.975 5.595 1.152 2.468-3.456.823-4.278.658 0 2.797-1.317 1.48-2.633 2.634 1.316 4.444.822 1.811-1.975 1.152-.33.494-1.81-.494-1.975 2.469.33 2.469-5.101 2.469-5.101s1.645 4.937 4.114 5.266c-2.304.823-1.81 4.607-.165 4.772-.493 1.646 2.304 1.481 3.785 1.81-4.278 0-3.456 2.469.165 3.127-1.81.987 0 2.304 2.468 1.81-2.304.823-2.14 2.468.658 4.114-1.152.658-2.139 1.975-.987 3.291-1.81 0 0 2.469 3.456 3.127-4.443.165-5.43 1.481 0 3.456-.823.164-.494 1.48 1.48 2.139-2.961 1.317-2.797 3.785 2.47 3.95-1.975.658-.165 1.316 1.48 2.468-9.38.658-4.278 4.608-.658 3.95-3.291 1.48 1.81 1.151 3.785 2.139-3.291.329-7.076.823-5.595 1.81-1.81.329-1.975 2.797 5.595 2.797-1.316.659 1.152 3.127 2.304 3.785-8.722 1.152-4.608 2.469-.165 3.456-1.316.33-2.468 2.633 2.304 2.304-2.797.658-5.43 1.975-3.126 3.456 2.303 1.316 1.974 1.645 29.127 4.114 21.393 1.975 25.013 2.468 29.95 3.126 5.76.823 1.481-2.797-.329-4.278 8.722 1.48 4.279-2.798 3.127-3.785 1.152 0 3.785-.658 1.81-1.975 4.608.658 3.126-2.468 2.304-3.456 6.088-1.48 2.962-3.126.822-4.278 1.152-.33 2.14-.823 1.317-1.975 3.95 1.481 2.797-.494 1.316-1.48 1.646.164 3.95-2.47 1.481-3.621 2.633-.658 1.81-1.646 1.152-1.975 6.583-.33-.987-3.456.988-2.633 2.797-.823 4.937-4.114 2.468-4.937 2.304-.329 3.95-2.304 1.646-3.456 1.48-.658 1.48-2.633.823-3.784 4.278.658 2.962-2.963 1.81-3.292 3.127.494 3.456-6.747 3.456-6.747s.329 4.773 3.29 5.102c-1.81.987 1.646 3.126 3.128 3.62-2.798 0-3.127 1.81-1.81 2.468-2.47.165.164 3.127 2.139 3.785-4.114.659-.659 2.304.329 3.127-1.975.33-1.81 1.81.329 2.304-2.14.987-.33 3.291.658 3.62 1.152.33 2.304 0 3.456-.823 1.646-1.81-.494-3.126-1.481-3.62 3.95-.658 3.785-3.785 2.304-4.443 3.126-.165 2.304-3.62 1.152-4.443 2.304.164 2.468-2.962 2.633-4.773.658 2.469.493 4.444 2.139 5.102-1.975 2.633.329 4.608 1.81 4.443-1.152.658.165 2.633 1.646 3.127-3.95.987.823 3.95 1.81 3.95-2.14 2.138 1.48 3.784 1.48 3.784s-1.974 2.14-1.48 4.279 3.785 1.645 4.772.822c1.975-1.645-.329-3.949-1.152-4.443 3.456-.164 2.633-3.95.988-4.443 3.29 0 7.57-1.152 2.797-2.304-.658 0 3.785-1.81.823-2.468 4.114.164 1.316-3.785 1.316-3.785s4.444-.494 2.14-2.304c2.468.494 2.797-1.81 2.797-1.81s-.493 2.962 3.127 3.95c-2.304 1.151.658 1.316 1.152 1.645-3.785 1.152-.823 2.633.987 3.127-2.139.493-1.81 2.139-.164 2.962-1.81.493.164 1.81 1.81 2.14-2.633 2.138-1.481 4.278.658 4.607-2.468 3.785 1.481 3.291 2.469 2.468.987-.493 1.48-1.48 1.151-2.14-.329-.657-.987-.657-1.81-.986 3.62-.988 1.81-3.127.659-3.785 4.772-.494 3.455-3.456 2.468-4.114 1.316-.165 2.633-.659 1.81-1.646 1.152-.165.658-1.316 1.152-2.962.165 2.14.658 3.785 1.646 4.114-.823.823.329 1.481.822 1.81-3.126-.658-.658 1.975.33 2.14-1.317 1.316-.165 1.81.822 1.81-.987.987-.329 1.316.823 1.645-1.316.988.33 3.127 2.633 2.304 3.456-1.152 0-3.291 0-3.291 1.975 0 3.456-.823 2.469-1.646 3.62.988 5.76-2.14 2.797-3.62 1.152-.33 2.469-2.962-.493-3.785 3.455.658 5.76-.33 3.784-2.962 1.975.164 1.81-1.646 1.975-2.798.494 2.304 1.317 2.469 2.14 2.469-1.317 1.48-.165 2.139.658 2.633-.33.823.493 1.974 1.974 1.81-.822.658.165 1.48 1.152 1.645-4.114.33-2.962 2.469-1.152 2.469-.329 1.316 0 1.81 2.304 1.481-1.48 1.81 1.152 2.14 2.14 2.14-3.456 0-2.963 3.949-.659 3.126-.164 2.14 3.292.658 4.443 1.152-2.468 2.304-1.81 4.114 3.292 3.127-2.469 3.455 1.974 2.468 2.304 1.316 3.126 2.14 4.114-.987 2.139-1.975 1.481-.164.987-1.316-1.152-1.974 2.798 0 2.14-.823 1.646-1.646 2.139.658 2.962-.494 2.139-1.81 2.304.329 2.304-2.304 2.304-2.304s.329 1.646 1.974 1.316c-.822 1.81.659 2.304 2.798 1.81-.823 1.81.165 2.469 1.646 2.634-.165.658 0 1.81.987 2.303l-.33.165z" font-weight="400" fill="#99542c"/>
        <path d="m298.044 354.478-.494-.164-.329.164h-1.317l-.658.165-.658.164-.658.165-.658.165-.659.164-.822.33-.659.328-.329.165-.329.164-.329.165-.494.165-.329.164-.493.165-.33.164-.493.33-.33.164-.493.165-.494.329-.329.164c-2.304 1.152-16.95 11.684-23.861 14.482-5.102 2.139-6.912 7.57-6.912 8.721.165 1.975 5.595.33 10.532-.822 6.089-1.81 6.418-2.633 6.747-4.114.165-.988 3.785-2.963 6.912-6.254 2.468-2.633-.494-3.291 1.81-4.608 2.468-1.645 7.405-6.911 9.544-7.57 2.14-.822 7.735-3.62 6.912-3.62zm136.257 35.052v.164h.164v.165h.165v.165l.165.164.164.165v.164l.165.165.164.164.165.165.164.164.165.165.164.165.33.329.329.329.329.329.164.165.165.164.165.165.164.164.165.165v.164l.164.165.165.165.164.164h.165v.165l.164.164c1.152.823 2.304 2.14 3.127.823.658-1.316-1.975-1.81-3.95-3.785-1.974-1.975-.987-2.798-3.126-3.62-2.14-.988-.823 1.152-.33 1.81zm-38.672-22.051h.165v.164l.164.33.165.164v.164l.164.165.165.33.329.164.164.329.165.164.165.33.329.329.164.329.165.329.493.494.494.658.494.658.329.165.165.329.329.329.164.164.33.33.164.329.164.164.165.165.165.329.329.164v.165h.164c1.481 1.481 3.456 3.291 4.443 4.772.823 1.481 1.975.659 2.14-.164.164-.988-3.456-4.279-2.14-4.279 1.152 0 2.304 2.962 3.95 4.443 1.48 1.481 2.962 3.62 3.62 4.937.823 1.481 2.304 2.962 4.443 4.937 2.14 1.975 2.304 3.62 2.304 3.62s.165-1.81 0-3.95c-.164-2.138-3.62-3.784-5.924-5.759-1.646-1.48-.823-3.291-2.304-5.101-1.48-1.646-6.253-9.874-7.57-10.861-1.316-.988-1.974 1.152-2.962 2.304-.823 1.152-2.962-3.95-4.114-5.595-.987-1.481-2.797-5.76-4.278-4.608-.823.658 1.645 6.253 2.139 7.57zM361.4 357.44v.33h.165v.658h.164v.329l.165.164v.165l.164.165v.658c0 .987-1.152.493-1.152 1.316 0 .988-.329 2.962 1.646 3.292 1.975.329 2.14.493 3.456.164 1.48-.329 4.278.658 4.937-.329.823-.987-.659-2.304-1.646-2.798-1.152-.658-1.316-2.468-1.975-3.949-.658-1.317-2.797-1.975-4.937-1.975-1.316 0-1.151.658-.987 1.81zm29.292 17.938.165.493.329.33.164.493.33.33.329.328.164.33.33.329.328.329.33.329.329.164.329.33.329.329.329.164.33.33.493.164.329.329.494.165.329.164.493.33.494.164.494.329.493.164.494.165.494.33.494.164.493.329.658.164.494.33.658.164.659.33.658.328.658.33c1.81.822-10.86-9.38-14.152-13.165-2.962-3.127-6.418-8.393-9.051-8.558-2.962-.329 8.393 10.039 9.709 12.672zm-69.61-15.634-.329.165-.164.164h-.33l-.328.165-.33.164-.329.165-.329.33-.329.164-.494.329-.329.164-.329.33-.493.329-.33.164-.493.33-.823.658-.823.658-.823.658-.822.823-.33.33-.329.328-.493.33-.33.328-.329.33-.164.329-.33.329-.328.329-.165.329-.165.165c-1.316 1.81-.658 3.62-.164 3.95.494.328.987.493 1.645-.165.494-.494 1.317-2.798 2.633-3.62 1.482-.824 3.456-4.115 4.608-5.102 1.152-.988 5.102-4.608 2.469-3.95zm-20.405 9.545h-.658v.164h-.329l-.165.165h-.164l-.165.165h-.329v.164h-.165l-.164.165-.165.164h-.329v.165h-.165l-.164.164h-.165c-1.316 1.152-2.139 1.481-1.48 2.14.493.658 1.151 1.151 1.974.329.823-.823 2.14-2.633 2.798-2.962.822-.33.658-.823-.165-.823zm16.292-14.317h-.165l-.33.165h-.164l-.329.164-.329.165-.329.164-.33.165-.328.164-.494.165-.33.164-.328.33-.494.164-.329.165-.494.329-.823.494-.987.493-.823.33-.329.328-.493.165-.33.33-.493.164-.33.164-.329.165-.329.329-.329.164-.329.165h-.329l-.33.165-.164.164c-2.468 1.152-4.278 2.633-4.114 3.127 0 .658.659.823 2.798.987 2.14.165 2.14 0 4.114-1.48 1.81-1.482 4.772-4.115 6.089-5.267 1.48-1.48 3.29-3.456 2.633-3.291zm173.447 69.774h-.493l-.33-.165h-.329l-.329-.164h-.494l-.164-.165h-.494l-.164-.164h-.494l-.164-.165h-.494l-.165-.164c-3.95-1.152-5.595-2.962-15.469-3.95-1.974-.164-7.898-7.076-16.785-10.532-2.468-.823-17.937-10.203-19.912-10.532-6.747-.822-8.557-3.126-7.734-.987.494 1.152 2.962 2.633 3.127 6.747.164 1.316 1.81 5.924 1.81 5.924-.165 1.646-21.722-5.43-26.824-13.33-7.076-10.696-8.392-13.329-12.177-15.797-3.95-2.304-7.241-4.772-8.558-7.9-.493-.657-.164-2.138-1.316-2.303-2.304-.165-4.114.33-5.43-2.304-.823-1.646-2.304.823-3.456 1.81-.988.659-2.962.33-2.469 1.646.33 1.152-1.48 1.81-.658 2.468 3.62 3.456 1.81 6.583 3.456 7.241.658.165 1.48 2.468 1.316 3.95-.329 3.29 1.81 3.949 1.975 5.595 0 1.316.987 4.443 0 4.278-1.481-.329-3.95-1.974-5.924-3.785-1.81-1.645-3.291-1.645-3.62-3.126-.165-.659-1.81-1.646-3.95-5.43-.33-.988 3.127 5.1 4.279 9.215.822 2.962 2.303 6.253 3.95 8.392 1.48 1.975-.165 5.43-.165 5.43-.494 0-4.773-2.303-5.431-3.784-1.81-3.291-7.076-3.785-11.355-11.52-1.48-2.962.165-8.886.165-10.531 0-2.469-2.798-3.785-5.102-7.735-2.303-3.291.494-11.684 0-14.317-.493-2.304.659-5.924-.493-5.924-1.81.165-7.241 5.43-13.823 8.886-1.152.494-3.62 2.633-4.444 2.798-5.43 1.646-7.57 3.95-10.038 9.215-2.962 6.254-5.101 9.38-6.253 11.684-1.317 2.304.494 2.798-1.317 4.443-1.316.988-11.848 11.355-13.33 12.836-5.43 5.43-5.923 3.456-5.759 2.798.658-2.798 7.076-10.039 10.861-16.292 2.469-3.785-2.468.165-4.278-.823-3.127-1.81.164-5.595.823-6.088 1.316-1.481.329-2.633 1.151-3.62 2.304-2.47.823-2.798 1.646-3.457 1.481-1.152.823-1.152 0-.822-1.975.987-7.57 4.278-8.722 5.43-1.645 1.646-15.14 9.874-12.177 5.76.658-.823 1.81-2.14 3.126-3.127 1.481-1.48 2.469-3.785 2.633-5.101 0-.988-.164-2.14.494-2.798 6.912-5.924-.987-1.316-1.81-.494-2.304 2.469-9.38 6.583-12.342 8.393-1.975.988-7.57 3.62-8.064 5.102-.658 1.48-1.316 2.797-2.468 2.303-2.633-1.152-3.95-.493-6.089 1.317-2.14 1.646-3.291-.33-4.279-.165-3.29.659-5.1-.658-6.417-.329-2.304.658-11.849 7.406-14.646 6.583l-1.317.164-.494-.658-.164-.494c.164-.164 1.645-2.962 1.316-5.595-.164-1.48-.658-2.633-1.48-4.114-.659-1.645 2.632-3.291 3.455-4.443.823-.987 1.481-2.797 2.962-4.114 1.317-.823.658-2.798.165-3.456-.33-.823-1.975-1.974-1.317-3.126.658-1.317 2.469-.659 3.95-1.481 1.48-.988 2.797-4.28 2.797-5.925l2.14-.822c4.607-1.482 27.317-13.33 27.317-13.33s5.101-2.468 9.38-2.304c5.266.494 9.05 0 10.696-.164 1.481-.33 2.633-.823 7.076-.659 4.608.165 6.418.823 10.203.165 3.456-.658 3.95-3.127 5.595-3.62 1.481-.33 3.456-1.646 4.279-2.469 2.14-2.797 4.443-1.975 5.595-3.785 1.646-2.962 3.95-1.974 8.886-5.924.988-.823 5.925.33 7.57-.658 1.81-.823 8.887-6.418 10.367-7.241 1.646-1.152 2.633-3.291 4.608-2.962 4.279.987 4.937-.33 7.076 1.646 3.127 2.962 10.203 7.734 10.532 8.557 1.317 3.456 6.583 3.62 6.747 8.228.165 2.468 2.469 2.14 2.14 5.924-.165.987 6.911-.33 9.873 2.14 1.975 1.81 9.545 9.05 10.697 9.544 1.975 1.152 5.43 4.114 6.911 4.772 3.127 1.317 15.305 8.228 18.925 13 1.646 2.14 4.608 1.482 6.418 2.798 4.772 3.456 17.279 11.19 18.924 14.152 1.481 2.633 12.836 10.532 13.33 12.342.329 2.14 5.595 4.608 5.924 6.418.165 1.81 7.24 6.583 9.874 8.558 2.962 2.139 3.62 2.633 6.089 5.266l-.659 1.316z" font-weight="400" fill="#ffffff"/>
        <path d="M438.58 513.445v.164l-.165.165v.164l-.164.165v.329h-.165v.165l-.165.164v.165l-.164.164v.494l-.165.165v.329c-.822 2.633-3.29 17.279-3.455 20.57-.33 3.456-1.152 4.937-2.963 6.747-1.81 1.975-7.076 6.089-7.405 8.557-.164 2.304.658 10.532-.987 12.013-1.975 1.975-9.38 11.19-12.342 14.152-2.798 2.962-7.57 8.228-7.57 8.228l-2.633 3.785c1.316 1.646 3.127 7.076-.658 10.861-3.292 3.291-9.874 12.178-18.925 18.596-4.772 3.456-10.203 6.911-11.355 8.392-1.645 2.14-.658 6.418-1.974 7.241-2.469 1.317-6.583 6.253-8.393 6.912-2.304 1.152-2.14 2.468-2.798 4.443-.658 1.975-1.974 2.468-2.468 4.608-.987 3.29-6.089 10.86-9.38 16.127-2.14 3.29-5.43 3.949-9.05 6.582-6.583 4.443-5.431 2.304-16.457 12.671-3.785 2.798-8.722 8.393-10.367 9.545-1.481 1.48-6.09 8.063-9.051 11.025-3.127 2.963-6.089 4.773-20.077 7.406-3.126.822-6.253-1.317-11.848-1.317-2.798 0-10.368-4.278-13-5.924-2.14-1.317-5.76-2.962-7.241-4.114-6.254-4.114-9.38-5.266-11.355-6.089-2.14-.987-4.608-2.14-6.418-3.456-2.468-1.645-6.089-5.595-7.57-6.911-6.088-5.595-17.114-12.507-18.595-14.317-1.317-1.975-4.114-5.924-6.253-8.393-1.975-2.468-2.963-1.645-4.114-3.62-.659-.823-.33-8.557-.823-10.038-.33-1.646-.659-3.456-6.089-6.583-5.43-3.126-7.899-3.456-9.71-6.088-1.974-3.127-9.544-11.19-9.873-12.836-.494-1.81-1.152-6.747-1.48-8.393-.33-1.646-.988-4.443-4.773-6.911-1.317-.988-1.317-2.304-1.975-3.127-.494-.823-2.304-1.317-3.127-1.646-.987-.164-.987-1.975-1.48-4.443-1.317-7.734-3.786-10.367-6.748-13.823-2.962-3.291-6.253-6.253-7.24-6.747-2.304-.987-5.102-3.62-6.254-4.937-.987-1.152-2.139-2.468-2.139-4.279 0-1.81-1.975-8.721-3.456-11.354-2.14-3.785-3.95-8.887-8.228-14.81-5.266-6.912-8.228-8.393-9.873-10.04-1.152-1.151-1.317-4.113-.988-5.759.33-2.304-1.316-3.95-3.62-6.747-2.469-2.468-9.051-9.05-10.038-10.367-.823-.988-2.633-1.81-4.28-2.14-1.48-.329-3.126-3.784-4.113-4.443-.987-.658-1.152-1.974-1.152-3.949 0-.165-.165-.658-.658-1.481-.165-.658-.494-1.317-.823-2.14l-.33-.493c.494-.165 1.153-.494 1.646-.658 1.152-.494.988-.988-.493-1.152 1.152-.33 2.468-1.317 1.316-1.81 1.317-.659 2.469-2.14 1.317-2.469.823-.658 1.316-3.456 1.316-3.456s.33 1.646 1.481 2.798c-1.152 0 .165.658.658 1.152-.658.329.33.658.988 1.316-.988.33-.658.823.329 1.152-.658.494.494.659 1.481.33-.494.822-.987.822-.987.822s5.101-.493 7.734-2.304c2.633-1.81 1.646-2.468-.494-3.456 1.975-.658 6.912-2.139 5.266-3.62 1.317-.987-.493-1.645-2.139-1.975 5.924-1.316 6.253-2.303 5.595-2.633 3.127-1.81-.658-2.633-1.645-3.29 3.949.822 3.126-.494 2.633-1.482 3.29 1.481 3.455-1.975 2.139-2.962 1.316-.164 1.48-1.975-.494-3.127 3.291.33 5.266-.329 2.633-2.139 1.646-.658 1.81-1.48 1.152-2.14 1.81-1.151.658-2.303-.165-2.632 1.81-.823 1.646-2.798.659-3.291 1.48-1.81 2.139-5.925 2.139-5.925s0 3.127 2.304 4.773c-.823.822-.33 2.468.987 2.468-1.316 1.975-.493 2.633 1.81 2.962-.822 1.152-1.645 2.14 1.481 2.304-2.633 1.81-1.645 2.962.823 2.633-2.633.987-.987 2.633 1.81 2.14-1.974 1.48-1.974 3.126.988 2.632-2.798 1.481-3.127 3.456 1.316 3.292-1.48 0-2.962 3.95 2.633 5.1.494-4.442 2.14-35.05 2.469-40.646.164-6.088-.165-10.367-.165-10.367s-.494-.165-3.126 0c-2.469.329-3.62 1.152-7.57-.165-3.95-1.316-4.608-.493-7.406-.329-2.468.165-3.785-.164-6.582.823-2.962 1.152-6.089-.33-7.405-1.481-1.317-.987 0-3.291 2.139-3.291 4.772.164 5.76-1.481 6.253-2.304 1.317-2.633-1.81-2.14-2.304-3.456-.822-2.633-2.303-3.127-2.962-3.785-1.48-1.48-3.126-.658-3.95-.987-.822-.494-1.974-.658-1.48-2.962 0-.659-.494.164-2.304 0-1.81-.33-.658-.33-2.304-.659-1.481-.164-.494-1.645-2.468-1.974-1.481-.165-1.646.823-4.114.987-.823 0-4.279-.329-5.596-.823-1.316-.493-2.962.165-3.949-.658-1.152-.823-.658-2.304-1.152-4.114 0-.987 1.646-2.468 2.304-3.95.823-1.316 2.304-1.81 6.089-1.316 1.645.33 4.772.494 7.24.33 3.785-.494 1.975 1.151 4.773.986 2.797 0 6.253-1.645 6.418-3.29.329-1.482.329-3.127-.659-3.457-.987-.493-2.468-.493-3.455-1.81-1.152-1.316-.823-2.633-.823-3.95.164-1.151 1.81-2.632 3.456-3.62 3.29-2.139 1.48-3.29 2.468-3.62.987-.494 2.468-.987 4.443-.987 3.456-.165 4.937.987 7.57 1.152 2.962 0 5.924.823 8.063.823 5.925-.33.33-3.127 3.456-2.633 1.646 0 3.95-.494 5.595-1.152 2.798-1.317 2.798-3.95 4.279-5.266.823-.659.658-3.62.494-4.773 0-1.316-1.317-3.455-3.292-3.785-1.81-.329-3.62 0-5.924-.329-2.14-.329-2.633 0-3.785.33-1.316.329-1.316.493-2.468 1.316-1.317.987-2.14.987-3.127 1.975-1.316 1.152-.493 2.962-1.975 3.785-3.126 1.645-2.797-.165-4.278.164-1.481.165-2.633 0-3.785-.329-1.481-.33-3.785-.823-3.95-1.975-.164-1.316-.987-1.974-1.974-2.468-.823-.494-.988-1.317-1.975-1.317-1.152 0-1.646 0-3.127 1.152-1.316.988-.822 2.469-1.316 3.292-1.317 1.974-.988 3.455-2.304 3.455-1.481 0 0-1.48-2.468-.822-1.317.329-1.152 1.48-2.963 1.974-1.316.494-1.81.823-3.784 1.646-2.304.987-2.798-.165-4.773-.658-1.645-.494-2.468-1.646-4.772-1.646-1.646.165-.658-2.962 1.152-5.101 1.646-1.81 3.785-.659 5.266-2.469 2.797-3.456 2.797-1.48 3.456-4.278.493-1.81 2.633-.988 2.304-2.798-.33-1.975-1.81-.987-2.14-3.291-.164-1.317.33-3.456 2.304-3.785 1.975-.165 4.608.987 7.076-.823 1.81-.987 3.95-1.646 5.102-2.797.987-1.152.493-2.798 1.316-3.292.658-.493 2.633.165 2.14-2.633-.494-2.139-2.963-.658-4.608-2.139-1.152-.823-.823-1.81-1.81-1.975-2.798-.329-1.317 1.646-5.266-.658-1.646-.987-.33-1.646-1.646-2.468-1.481-.823-2.633 0-5.266-1.317-2.304-1.152-4.608.823-5.266-.823-.33-1.152-2.633-2.139-2.962-2.633-.33-.493-.823-1.316-.658-2.797.164-1.317-.165-3.127 1.152-3.785 1.316-.494 2.139-1.81 2.962-2.798 1.48-1.645.493-3.62 1.48-4.443 1.153-.987 3.127-5.101-2.138-2.14-1.646.824-3.785-.164-4.28.66-.493.657-4.113.657-4.113-.824 0-1.974 3.456-1.81 1.81-4.114-1.646-2.139-2.962-.822-2.962-3.126-.165-1.152 2.633-2.962 4.278-3.62 1.646-.659 4.115-2.14 7.735-.494 8.393 4.114 6.911.822 9.874.822 3.126.165 2.303 1.646 8.228 1.975 2.633.165 6.253.165 6.253-1.316 0-1.646-2.14-1.646-3.62-1.975-1.317-.33-3.292 1.316-4.444-.823-.822-.987 1.975-1.646 1.646-3.456 0-1.81-2.962.165-3.127-1.316-.493-2.14 1.481-4.114-.493-5.43-.823-.494-2.469-.988-3.95-.165-1.316.658-2.468 1.81-4.772-.33-2.468-1.974 1.316-2.961.165-4.607-.988-1.646-4.279.823-3.456-1.646.493-1.152 2.304-3.785 4.443-3.455 9.874 1.316 13.165-1.975 15.14-1.81 2.797.493 2.797 1.645 6.088 1.48 2.469-.164 3.62-2.633 8.064-2.797 7.24-.165 7.405 1.152 9.874 1.975 9.05 2.633 5.595-2.14 7.57-2.14 2.632.165 2.961-1.48 2.961-2.468 0-.823-1.48-1.317-3.62-1.81-1.975-.33-1.645-1.975-6.089-1.152-5.595 1.316-8.886.329-10.696 1.81-2.962 2.304-5.76 1.81-7.076-.494-1.152-1.975-4.608-3.126-5.595-2.797-3.127.822-4.773.493-5.595-.988-.988-1.48-2.633-3.29-4.608-3.785-1.81-.493-4.114 1.317-5.266-2.139-.988-2.468 1.975-2.797 2.962-4.114 1.152-1.316 0-2.633 1.152-3.456 1.81-1.316 4.937-3.126 4.608-4.278-1.646-3.292-2.633.493-3.62-.33-3.127-2.303-3.95.165-5.431-.493-1.646-.823 1.974-2.304 2.139-3.785.33-1.646-.658-3.127 1.81-5.266 4.114-3.291 1.152-3.291.823-4.443-.165-1.152.823-2.14.33-2.962-.495-1.152-1.646-1.317-1.811-2.304-.165-1.152 1.152-3.62 2.304-4.279.987-.658.164-1.81 4.937-2.962 4.937-1.152 1.974-3.291 1.974-4.114 0-.987.494-2.304 1.317-2.633.823-.329 1.646 0 2.962-.164 1.481-.165 2.14-.659 3.785-.494 1.646.33 1.481 1.152 2.797 1.48 1.317.166 2.304-.164 3.292-.164 2.139.165 2.962 1.481 4.772.823 1.81-.823 1.975-2.139 1.81-3.62 0-1.317-1.975-.33-1.81-1.646.165-1.316 1.317-.823 1.152-3.455 0-1.152-.165-2.14 1.645-2.633 1.975-.494 2.14-1.317 3.456-1.317 1.152.165 3.127 1.316 4.937 1.481 1.152 0 4.114-.329 4.443 1.152.494 1.81 1.152 2.962 1.481 4.114.165.823.165 1.81 1.317 2.304.658.164 1.316.823 1.316 2.14 0 1.974.494 7.075.494 7.075s.658 1.646 1.481 1.317c.987-.33 1.975-.823 2.304-6.747.164-1.317.987-13.823.164-14.975-1.316-2.304-.493-2.962-1.48-4.114-.988-1.152-2.14 0-2.14-1.152 0-1.317.165-3.456-1.48-3.785-2.305-.494-2.305 1.975-2.47 2.962 0 .987-1.645 1.316-3.62 1.316-1.316 0-2.962-.493-4.114-1.152-1.152-.493-1.48-.493-2.962-1.645-.823-.494-1.152-.987-.823-4.114.33-2.469 2.304-4.279 1.152-5.43-1.152-.988-1.48-1.317-4.607-1.317-2.963 0-5.102-.165-4.937-1.81.164-2.304 2.797-2.304 7.405-1.975 1.975.165 3.62-1.481 3.127-3.62-.165-.823.658-1.482.658-3.292-.165-1.974-2.14-3.29-3.785-2.304-2.14 1.152-3.456.33-4.937 1.152-2.962 1.975-4.608 1.317-6.089.494-.987-.658-1.974-1.975-1.316-3.456.658-1.48 1.316-1.645 1.481-3.455 0-1.646-1.975-1.81-.494-3.456 1.646-1.81 0-4.443 1.646-5.43 3.291-2.305.329-4.28 2.962-5.596 1.481-.823 1.81-2.962 1.81-4.608 0-1.48-1.81-1.81-.494-3.29 1.317-1.317.659-3.786 3.456-4.28 2.633-.329 4.279-1.48 6.418-2.468 1.481-.493 3.785-2.304 6.418-3.62 1.481-.823 1.81-.823 6.253-1.317 1.317-.164 3.95-2.139 5.102-3.455 1.152-1.317 2.468-1.646 5.101-1.81 1.481-.33 2.304.822 4.937 1.974 2.633 1.152 2.304 2.962 4.608 3.456 1.48.329 4.278-.33 2.797 2.304-1.152 1.975.659 3.455-1.974 3.785-1.482.329-2.633 1.152-2.633 1.974.164 1.81 1.974 2.469 3.95 3.292 2.138.822 2.138 2.303 3.29 3.62.823.823.988 3.456 1.317 5.101.329 1.481.329 2.962.329 4.279.164 1.316 1.152 2.468.987 4.608-.164 1.81-1.152 2.962-1.81 4.278-.823 1.317-1.48 2.962-1.975 3.95-.329 1.316-.164 3.126-.329 4.278-.329 1.317-.987 3.456 0 4.114.823.33 1.81 0 3.127.33.823.164 1.81 1.48 2.14 2.139.328.823-.165 3.126 2.468 3.62.987.165 1.81 1.152 1.81 1.975-.33 2.14-.988 3.95.823 6.089 1.152 1.48 2.633 1.152 5.101 1.152 2.468-.165 2.14-3.127 2.633-4.937.658-1.81 2.468-4.773 4.608-6.09 1.152-.657-1.152-3.62 4.772-4.113 5.924-.494 7.899-.33 8.886 1.316 2.14 4.608-.164 4.773-1.48 6.912-.659 1.317-1.976 1.646-1.976 3.785.165 3.291 3.95 2.633 3.95 4.114 0 .823-1.316.987-1.481 2.304 0 1.316 1.975 1.48 1.975 3.126 0 .823-3.127 2.798-1.152 4.114.987.823 1.974 1.482 2.304 5.267.329 1.645-2.304 1.48-2.14 3.29.165 2.305-.164 2.798-1.645 3.621-2.14 1.152-3.292 2.962-2.14 4.114 1.152.823 2.798.33 3.62 1.481.824.988-.657 4.772.659 5.924.823.823 3.95-.493 2.798 1.81-1.646 3.456 2.468 3.95-1.646 5.925-2.468 1.152-3.62 1.316-4.937 1.975-1.975.822-4.443 1.81-4.772 3.126-.33 1.481.329 3.62-1.646 3.95-1.81.164-1.81 2.633-1.316 3.455.493.988 1.974 1.975 1.974 3.127 0 1.317-.493 3.127-.164 5.101.164 1.482 1.152 2.633 2.304 3.292 1.152.493-.823 1.974-.165 2.797.658.823 2.469 1.646 5.595 1.646 2.633 0 6.089-.494 8.064-.494 2.139 0 1.316 1.317 2.304 2.14 1.974 1.48 4.772 0 5.924 1.151 1.975 1.81 3.291.988 3.785 2.798.329.987 1.316 1.316 1.81 2.468.33 1.152-.987 2.469.165 3.785.987.988.329 2.304-.165 3.292-.658.987-1.81 2.303-2.14 3.949-.329 1.481 0 2.633-1.48 3.95-.988.987-1.646 2.303-3.456 1.81-1.81-.33-3.62-.823-6.089-1.152-2.962-.659-2.962 1.152-3.785 2.14-.987 1.15-4.772 1.315-4.937 3.455-.164 1.48.494 1.48 4.279.987 1.316-.329 1.316 2.469.494 3.456-.659 1.481-1.81 3.785-4.773 5.101-1.81.659-4.278-2.633-5.101-2.468-1.81.33-3.291-1.317-4.608 0-1.316 1.152-2.304 1.152-3.456 1.81-.987.823.823 3.62-.493 3.62-1.317 0-2.962-.164-3.456 1.152-.658 1.81.658 2.798 1.975 3.292 1.152.493 2.962.987 2.962 1.974 0 .988-2.798 3.127-.33 4.114 3.127.988 1.482 1.975 3.95 2.798 2.633.823 7.899 1.646 14.81 4.114 4.773 1.646 8.064 2.962 8.887 4.608.658 1.316-.33 1.48-.165 2.468.33.988 1.81 2.304 4.773 3.456 1.316.658 2.797 1.646 3.126 3.127.33 1.316-2.468 1.152-1.81 5.101.165 2.14-1.975 2.14-1.646 4.608.165 2.468-.329 2.139-1.645 4.443-1.481 2.633-3.62 2.962-2.798 4.772.494.823 2.304.823 4.279.823 1.152 0 2.14.658 6.089.823 5.595.164 6.253-1.646 10.696-1.81 1.481 0 4.114.658 4.772 1.645.659.823.33 1.81.165 3.127 0 1.645-1.481 4.937-2.962 5.76-1.317.822-2.962.164-3.785 1.48-.658 1.317.987 2.14 1.481 2.798.33.658 1.152 2.962-.164 3.95-1.646 1.152-2.304 2.962-3.127 3.949-.823 1.152-4.114 2.798-3.291 4.443.658 1.481 1.316 2.633 1.48 4.114.494 2.962-.987 4.443-1.151 5.595-.165 1.317 1.316 1.152.164 2.798-1.48 2.304-2.797 2.797-1.974 4.278.658 1.646-2.469.988-3.127 1.152-.823.165-1.481 1.152-1.81 2.633-.33 1.317.329 3.456-2.304 3.456s-6.418.165-7.405.988c-.823.822.822 2.303-.33 2.962-1.316.822-1.974 0-2.962 0-1.152 0-2.468 1.316-2.468 1.316s-.987 1.317-1.317 2.14c-.329.822-1.81 1.316-1.974 2.139-.165.987.823 1.48-.165 2.797-.494.988-1.645 1.481-2.797 2.14-1.152.658-1.646-.494-2.469 1.151-.329 1.317 0 1.81-.658 2.634-.987 1.151-2.962 1.48-4.114 1.974-4.608 1.81-9.874 2.633-10.861 2.633-.988 0-7.076-.164-7.076-2.304-.33-3.455-3.291-3.785-3.62-4.937-1.153-2.632-4.444-3.784-4.444-5.595-.164-2.468-9.05-1.645-9.38 0-.164 1.317 0 9.545 0 11.355-.164 3.291 0 7.076.658 23.039.33 10.86-.164 13 1.152 23.861.823 6.418 2.14 9.545 3.127 11.19l2.468-.823c-.329.165 3.62-.658 1.81-2.303 2.47-.165 2.634-2.304-1.316-2.469 2.798-.658 2.633-2.304.987-2.468 2.304-.658 3.292-1.481 2.304-2.798 1.975.33 1.317-1.48.823-2.304 1.481.494 2.469-.164 1.975-1.152 2.468 1.482 4.279-.164 1.481-1.316 1.975-.165 1.316-1.152-1.646-1.481 1.152.165 3.292-.658 2.633-1.646 1.481 1.152 3.456-.658.988-2.797 1.48-.494 2.304-2.962 2.304-3.456.164 1.646-.494 4.608 1.316 4.114-.987 1.152-.823 2.14 2.468 2.14-2.962.328-3.784 2.632-.164 2.961-1.317 1.152 2.468.823 4.114 1.481-2.468.165-2.798.988-1.81 1.317-2.469.987.329 1.81 4.114 2.468-3.62.165-4.443 2.469-2.798 3.456.823.494 2.14.33 3.291 0 .988-.329 1.482-.823 2.633-1.152.988-.329 1.646-1.316-1.48-2.304 1.48.33 3.949.165 3.126-.493 3.62-.494 3.456-2.469-1.646-3.95 1.317.494 7.077-.493 4.28-1.81 1.316-.329.164-2.633-1.646-2.468 1.151-.494 1.48-2.469-.659-3.127 2.14 0 4.114-.33 2.304-1.481 1.317 0 2.304-.494 1.646-1.317 2.962.494 2.304-1.316.987-1.81.658-.493 2.798-.987.494-2.633 1.81.165 3.785 0 3.456-.823 2.139-.164 3.62-2.468-.165-2.139.494-.658.987-1.48-.33-2.14 2.798 0 3.95-3.62 2.798-4.607 1.646.165 1.317-4.278 1.152-5.43.988 2.468 1.317 3.95 2.469 3.95-1.317.822.329 2.632 1.974 2.961-1.48.823 1.152 2.633 2.469 2.304-2.304 1.152-2.469 3.785 2.962 5.266-2.304-.165-.987 2.14 0 2.633-.823-.494-3.785-.494-2.962.823-1.152.329-1.81 2.468 1.646 1.48-.494.824 1.48 1.482 3.949 1.976-1.481 1.48-.823 2.139 1.152 2.468-.823.494-1.81 1.152-.33 2.14-1.316.987-2.961 2.961 2.963 3.126-2.633 1.152-.33 1.81 1.152 2.633-4.937-.165-3.456 3.785.164 3.95-1.974.658-.822 2.468 1.481 3.29-1.316 1.153 3.292 1.646 1.975-.658 2.798-.329 4.114-2.139 2.14-2.633 3.62-.987 1.316-5.266.164-5.101 1.646-.494 3.785-1.646 2.14-2.962 2.468.658 5.265-1.646-1.153-2.14 5.102-.658 3.785-2.797 1.481-3.62.659-.329 6.747.494 4.28-1.974 1.645-.494-.165-1.646-2.14-1.481 1.48-.494 3.62-1.975 1.645-2.963.823.165 1.646-.164.988-2.139.823.823 4.607.823 3.456-.987 1.48-.494.164-1.646-.494-2.304 2.14-.823.823-3.785 0-4.443 11.19-.659.987-4.279 0-4.608 2.633 0 5.266-.823 3.95-1.975 5.594 1.152 2.468-3.62.822-4.278.658-.165 2.633-1.317 1.481-2.633 2.633 1.152 4.443.822 1.81-1.975 1.152-.33.494-1.81-.493-1.975 2.468.33 2.468-5.101 2.468-5.101s1.646 4.937 4.114 5.266c-2.304.823-1.81 4.443-.164 4.772-.494 1.646 2.303 1.481 3.785 1.646-4.28.164-3.456 2.633.164 3.126-1.81 1.152 0 2.469 2.468 1.975-2.303.823-2.303 2.468.659 4.114-1.152.658-2.14 1.975-.988 3.127-1.81.164 0 2.468 3.456 3.126-4.443.165-5.43 1.646 0 3.456-.823.33-.494 1.646 1.481 2.304-2.962 1.317-2.797 3.785 2.469 3.95-1.975.658-.165 1.316 1.48 2.468-9.38.658-4.278 4.608-.658 3.95-3.455 1.48 1.81 1.151 3.785 2.139-3.29.329-7.24.823-5.595 1.645-1.81.494-1.974 2.962 5.595 2.798-1.316.823 1.152 3.291 2.304 3.95-8.722 1.151-4.608 2.468-.164 3.455-1.317.33-2.469 2.633 2.303 2.14-2.797.822-5.43 2.139-3.126 3.62 2.304 1.316 1.975 1.645 29.127 3.95 21.393 2.139 25.014 2.632 29.95 3.29 5.76.823 1.481-2.797-.329-4.278 8.722 1.316 4.279-2.798 3.127-3.785 1.152 0 3.785-.658 1.81-1.975 4.608.658 3.127-2.633 2.304-3.455 6.089-1.482 2.962-3.127.823-4.28 1.152-.328 2.139-.822 1.316-1.974 3.95 1.481 2.798-.494 1.317-1.48 1.645.164 3.95-2.47 1.48-3.621 2.634-.658 1.81-1.646 1.153-2.14 6.582-.164-.988-3.29.823-2.468 2.962-.823 5.101-4.114 2.632-4.937 2.304-.329 3.95-2.304 1.646-3.456 1.317-.658 1.481-2.797.823-3.784 4.279.658 2.962-2.963 1.81-3.292 3.127.494 3.456-6.747 3.456-6.747s.329 4.773 3.291 5.102c-1.81.987 1.646 3.126 3.127 3.62-2.798 0-3.127 1.81-1.81 2.468-2.469.165.164 2.962 2.139 3.62-4.114.824-.823 2.47.329 3.292-1.975.33-1.81 1.81.33 2.304-2.14.987-.33 3.291.657 3.456 1.152.493 2.304.164 3.456-.823 1.646-1.646-.493-3.127-1.645-3.456 4.114-.658 3.784-3.785 2.468-4.443 3.127-.165 2.304-3.62.987-4.443 2.469 0 2.633-2.962 2.798-4.773.658 2.304.494 4.444 1.975 5.102-1.81 2.633.493 4.608 1.974 4.443-1.152.658.165 2.633 1.481 3.127-3.784.987.988 3.95 1.975 3.95-2.14 1.974 1.481 3.784 1.481 3.784s-1.974 2.14-1.48 4.114c.493 2.304 3.784 1.646 4.771.987 1.975-1.645-.329-3.949-1.151-4.443 3.455-.164 2.633-3.95.987-4.443 3.291 0 7.57-1.152 2.797-2.468-.658.164 3.785-1.646.823-2.304 4.114.164 1.317-3.785 1.317-3.785s4.443-.494 2.139-2.304c2.304.494 2.798-1.81 2.798-1.81s-.494 2.797 3.126 3.95c-2.304 1.151.658 1.151 1.152 1.645-3.785 1.152-.823 2.633.988 3.127-2.14.493-1.975 2.139-.165 2.962-1.81.329.165 1.81 1.81 2.14-2.633 1.974-1.48 4.278.658 4.607-2.633 3.62 1.482 3.126 2.469 2.468.987-.493 1.48-1.48 1.152-2.14-.33-.657-.988-.657-1.81-.986 3.62-.988 1.81-3.127.658-3.785 4.772-.494 3.456-3.456 2.468-4.114 1.317-.165 2.633-.659 1.81-1.646.988-.165.659-1.481 1.152-2.962.165 2.14.494 3.785 1.646 4.114-.823.823.33 1.481.823 1.81-3.127-.658-.658 1.975.329 2.14-1.481 1.151-.33 1.645.823 1.645-.988.987-.33 1.481.823 1.81-1.317.988.329 3.127 2.633 2.304 3.455-1.152 0-3.456 0-3.456 1.974 0 3.455-.658 2.468-1.645 3.62 1.152 5.76-1.975 2.797-3.456 1.152-.33 2.469-2.962-.493-3.785 3.456.658 5.76-.494 3.62-3.127 2.14.33 1.975-1.645 2.14-2.633.493 2.304 1.316 2.304 2.139 2.469-1.317 1.48-.165 2.139.658 2.633-.33.823.494 1.974 1.975 1.81-.823.658.164 1.48.987 1.48-3.95.33-2.797 2.634-.987 2.47-.33 1.48 0 1.974 2.304 1.645-1.482 1.81 1.151 2.14 2.139 2.14-3.456 0-2.962 3.784-.658 3.126-.165 2.14 3.29.658 4.443 1.152-2.469 2.304-1.81 4.114 3.291 3.127-2.468 3.455 1.975 2.468 2.304 1.316 3.127 2.14 4.114-.987 2.14-1.975 1.316-.164.987-1.48-1.153-1.974 2.798 0 2.14-.823 1.646-1.646 2.14.658 2.962-.494 2.14-1.975 2.303.494 2.303-2.14 2.303-2.14s.33 1.647 1.975 1.317c-.823 1.81.658 2.304 2.797 1.81-.823 1.81.165 2.304 1.481 2.469 0 .823.165 1.975 1.152 2.468l-.329.659c-1.152 1.974-1.81 3.62-1.81 4.607 0 1.975 1.152 3.62-.987 5.102l-.659.493c-19.912-1.316-52.824 1.646-66.318 3.127-14.81 1.481-21.557 2.14-21.557 2.14-30.115 4.278-21.229 4.936 19.747 10.038 12.342 1.48 13.494 2.304 16.62 2.468 3.127.165 4.773 1.152 15.47 2.468 5.1.659 13.658 2.798 15.633 2.963M106.166 335.06h.164l.33-.164h.329l.164-.165h.33l.164-.165.164-.164h.165l.164-.165h.33v-.164h.164v-.165h.165l.164-.164.165-.165c.823-.823 1.81-1.152 1.645-2.14-.164-.822 0-1.974 0-2.468 0-1.645-1.151-1.152-1.974-.658-.823.33-1.152 1.152-1.81 1.81-.823.494-1.81 1.317-3.127 1.81-1.481.494-2.304.988-1.81 1.81.493.659.164 1.482 1.316 1.81 1.152.33 2.14-.328 2.798-.493zm26 54.14v.33l.165.164v3.292l.165.164v.165l.164.164h.165c.987.165.987.823 2.139.988.658 0 .329-.988.987-1.317.823-.493 1.152 1.152 2.304-1.48.494-1.153 1.152-1.153 1.481-1.811.494-.823.33-2.14 0-2.962-.164-.823-.493-2.304-1.152-2.798-2.468-1.48-4.278-.658-4.443.659-.164.822-.987.822-1.152 1.645-.164 1.317-.987 1.481-.823 2.798zm26.166-31.266v.329h-.165v3.456l-.164.658v8.064l-.165.823v3.455l-.165.33v.821c-.164 1.481.33 2.962 1.152 2.962.823 0 1.481-.987 1.481-.987s.659-.823.659.33c.164 1.151-.165.987.164 1.316.658.493 1.481.493 2.304-1.152.658-1.81-.165-3.95 1.317-3.785 3.455.493 1.974-2.798 2.633-4.279.493-1.645.658-6.911.493-7.57-.164-.493-2.139.33-2.139-.658-.165-1.81.987-4.114-.987-4.114-1.482 0-.823 1.317-1.646 1.481-.823 0-.823.165-1.646-.164-.329-.988-.822-.988-1.48-1.317-.659-.164-1.317-.329-1.646 0zm-30.28-12.342v.987l.165.165v.329l.164.165v.329l.165.164.165.165v.164h.164v.165h.165l.164.165h.165l.164.164h.33c1.152.33 1.48 0 2.468.494 1.316.658 1.646.823 3.456.987 1.81.165 2.304-.164 2.304-.823 0-.822.493-2.139.822-2.468.33-.658.659-2.304-.164-2.633-.823-.165-2.14-.165-3.456-.823-1.152-.658-1.316-1.48-2.962-1.48-1.481 0-1.481.986-2.468 1.81-.823.822-1.646.328-1.81 1.974zm30.444-1.975v.329h-.164v.329h.164v.33h.165v.164h.329v.165h.164v.164h.33v.165h.164v.164h.165v.165h.164v.165c.494.493-1.152.822-.329 2.139.823 1.316 2.14.987 3.95 1.316 2.139.165.493.988 1.81 2.469.823.987 1.975 1.152 3.95 1.645 1.81.494.987 1.975 3.29 1.81 1.482-.164 5.266-.658 6.09-1.974.822-1.317 0-1.975-1.317-3.291-.494-.33.658-1.975-.33-3.62-.987-1.81-4.113-2.47-4.936-3.127-.988-.823-2.14-2.469-4.279-3.127-1.645-.494-.164-1.152-2.962-1.317-1.316 0-3.456 1.152-5.43 1.481-.988.165 0 1.975-.988 3.456zm-1.152-21.886h-.164v.822h.164v.329l.165.165v.165l.164.164.165.165v.164l.165.165v.164l.164.165.165.165.164.164v.165l.165.329.164.164.165.33.164.164.165.33.165.328.164.165.165.329.164.494.165.329c.494.987 1.975.329 4.278 1.48 1.81.824 2.798.494 4.28 1.153 1.645.658 1.81 1.81 2.797 2.468.987.823 1.316.33 2.303.823.823.33 1.152 1.481 2.469 2.304 1.152.823.823 1.48 2.304 1.81.987.165.823-.658 1.645-.33 1.152.33 1.81.33 2.469-.164.658-.658 0-1.48 0-2.633 0-.658 1.152-.164 1.152-.987.329-1.152-1.152-2.14-1.481-2.798-.33-.658 0-1.316-.988-2.962-.823-1.81-.823-.658-1.974-2.468-.823-1.481-.494-2.633-1.975-4.443-2.469-2.304-4.772-2.633-9.38-3.62-3.95-.823-8.228-1.975-9.545-.823-1.48 1.152-.329 2.633-1.152 5.266zm20.735-13.66h.165l.164-.164h.165l.164-.164.165-.165h.164v-.329h.165v-.329h.165v-.987l-.165-.165v-.164l-.165-.165v-.165h-.164v-.164h-.165l-.164-.165h-.165c-.658-.164-2.468-.658-3.785-.658-1.152 0-1.645-.987-4.608-1.152-2.962-.164-7.076-.494-9.709-.164-1.48 0-1.48 1.48-1.152 1.81 1.975 1.81.165 2.797-.329 3.455-.658.659-.329 1.152.494 1.975.987.823 2.304.823 3.127 1.152.987.33 1.645.988 2.962 1.152 1.316.165 4.607.988 5.43 1.152.988 0 1.81.165 2.14-.494.493-.822 1.645-1.48 2.797-1.974 1.152-.33.987-2.469 2.304-3.127zm-66.647-39.987v.329l.164.164v.165h.165l.164.164h.329l.165.165h.823l.164.165h.165c1.646 0 3.291.329 3.785-.494.494-.494 1.152-.823 1.81-.823.658 0 2.468.165 2.14-1.317-.165-1.48-2.47-1.645-4.937-1.48-1.152.164-3.292-1.317-4.773-.33-1.645.823.165 1.81-.164 3.292zm46.735 11.683v.823h.165v.165l.164.164.165.165.164.164h.165v.165h.329v.165h.165c.987.164 1.974-.659 2.633-1.152.493-.494 1.151-.988 1.974-1.646.823-.658 0-1.646-.823-1.646-.658 0-2.632.988-2.632.988s-1.646.658-2.469 1.645zm10.038-6.747.165.165h2.633c1.316 0 2.14.329 4.443-.33 1.646-.328 1.646-.822 1.975-1.81.164-.987-.988-1.316-2.14-1.81-1.316-.493-3.29 0-4.772.33-1.48.164-3.291 1.974-3.291 1.974s.165 1.317.987 1.481zm-31.925-13v-.165l.165-.329v-.329l-.165-.164v-.659l-.164-.164v-.165h-.165v-.164h-.164v-.165h-.165v-.164h-.164v-.165h-.33l-.164-.164h-.165c-1.81-.659-4.278-.659-5.43-.494-1.152.164-4.443.658-5.595 1.152-1.152.329.987 1.974-2.469 1.316-.329-.164-1.316.658-.164 1.646 1.316.987 2.304.658 2.797.658.494 0 1.81 0 2.469.165.658.164.658.493 2.304.493 1.645.165 2.139-.493 4.114-.493 1.974-.165 3.29-.823 3.455-1.646zm19.912 3.127v-.165 1.811l-.164.164v2.962l-.165.33v.658l.165.329v1.481h.164c.494 1.48 1.481 1.316 1.81.658.659-.988.823-1.152 1.81-1.646.988-.329 0-3.127.494-4.278.659-.988 1.152-6.254.659-9.216-.33-1.316-.33-2.304-.988-3.456-.987-1.81-1.974-2.797-2.797-1.974-.823.987-.165 1.152-.823 3.455-.33 1.152-.165 10.203-.165 8.887zm17.773-23.039v.494h.165v.164h.164v.165h.329v.165h.494l.165.164h.658-.165c-.658-.164 1.81.823 2.469.33 1.316-1.482 2.303-1.317 2.962-2.963.329-.823.823-1.646 1.316-2.304.494-.658-.329-1.645-.987-1.81-.658-.165-1.152.165-2.469.823-1.316.658-2.304 1.645-3.126 2.304-.988.658-1.81 1.316-1.975 2.468zm-.494-10.038v.658h.165v.165l.164.164.165.165h.165l.164.164h1.81l.165-.164h.164c1.481-.33 2.469-1.81 3.456-2.633.988-.823 1.317-1.646 1.152-2.962-.329-1.317-3.785.329-3.127-.165.659-.329-2.139 1.81-2.632 2.14-.988.658-1.81 1.645-1.81 2.468zm-2.633-9.216h.494v-.164h.165v-.165h.164v-.164h.165v-.165l.164-.164.165-.165v-.164h.164v-.165c.659-.823 1.152-2.468.988-3.291-.165-.659 1.152-1.975.493-2.633-.658-.823-2.633 1.974-3.126 2.633-.33.823-1.646 2.797-1.481 3.62.164.658.822.987 1.645.987zm-15.14-.493v2.304l.165.329v.658l.165.165v.493l.164.165v.329l.165.494v.329l.164.164v1.317c-.164 1.81-.164 2.797.659 4.607.329.988-.823 7.57.164 8.229 1.152.493 1.81-1.317 2.633-2.304.823-.988 1.975-7.57 2.304-8.722.823-2.304 1.481-6.583 1.81-8.557.165-1.975-.164-5.925-1.152-9.38-.658-2.14-1.645-2.633-2.468-3.456-.987-.658-1.646-.494-1.975.164-.164.659-.493-.493-.493-.493-1.317-.658-1.646-.165-1.81.658-.33.494-.494 3.62-.988 4.772-.987 1.81.987 3.292.494 7.735zm-18.266-24.19h.33v-.165h.164v-.165h.165v-.329l.164-.165v-.493l.165-.165v-1.645h.164v-.33c0-.822.165-2.303-.658-3.62-.987-1.152-1.81-.164-2.304-.164l-.329 2.962c.33.329.823 1.316.823 2.303.164.988.494 2.14 1.316 1.975zm4.114-9.545h.824l.165-.165h.164l.165-.165h.329v-.164h.658v-.165c.823 0 1.152-.329 1.81-1.645.33-.988.165-2.469-.329-3.456-.329-.987-1.48-.165-2.139-.658-.658-.494-1.316-1.481-1.975-.988-.493.494-1.152 2.14-1.152 2.963 0 .822.823 3.455 1.481 4.443zm-1.316-17.115v.659h-.165v.329l-.164.164v.165l-.165.164v.329l-.164.165v.329l-.165.165v.493c-.164 1.481 1.81 3.292 2.14 3.785.164.494 3.126.823 3.29 0 .33-1.316-.164-1.974.165-4.278.33-1.975-1.48-2.633-2.14-3.785-.657-.988-1.316-1.481-1.81-.823-.658.494-.658 1.316-.822 2.14zm12.671-8.228v.329l-.164.165v1.646l-.165.164v.987s.165 2.14-.494 2.963c-.493.658-.164 1.151.33 1.81.658.493.822.329 1.48 0 .823-.33.494.823.823 1.316l1.975-.493c.165-.494.823-2.469.987-3.785.33-1.81.494-3.456.165-6.747-.33-3.456-3.456-1.482-3.456-1.482s-1.48.823-1.48 3.127zm-30.115 69.774.165.165v.329h.165v.164l.164.165v.165h.165v.164l.164.165.165.164h.164v.165h.165l.165.164h.164l.165.165h.164v.165h.165l.164.164h.165l.164.165h.165l.164.164.165.165.165.164c1.316.988-.823 1.975.987 3.456 1.481.987.494 1.81 5.266 2.14 2.798 0 2.14-.823 4.608-1.975 2.139-.988-1.646-2.469-.988-4.114.165-.494-1.48-2.469-4.114-2.798-2.139-.164-2.139-2.14-3.126-2.633-.988-.494-1.975-.329-3.456-.658-1.481-.165-2.633-.823-3.291.329-.494.823.329 1.81.822 3.291zm46.736 167.524h.164v.164h.494v.165h.494l.164-.165h.823l.165-.164h.329l.329-.165h1.316c2.962.658 2.962 0 5.266-.164 2.963-.33 2.963-1.646 3.95-1.81 1.316 0 3.291 0 5.43-1.317.823-.658.823-1.481.659-2.14 0-1.316-.823-1.151-1.81-1.151-.988 0-.165-.659.822-.988.823-.164 1.646-.329 2.304-.987.494-.494.494-.987-.658-1.975-1.317-.658-1.975 0-12.342 2.962-10.368 2.963-9.38 5.266-8.557 5.595 1.48.165-.33 1.482.658 2.14z" font-weight="400" fill="#2d4b1e"/>
        <path d="m97.115 427.379-.33.165h-.494l-.164.164h-1.152l-.164-.164h-.824l-.493-.165h-.329l-.494-.165h-.493l-.165-.164h-1.975l-.164.164c-3.785.823-13.33 1.317-19.418 2.14-1.317.329-1.481.329-7.57.823-3.62.329-7.405.658-8.393.164v.165c.33 1.316 1.152 3.29 2.304 5.924 1.316 3.127 3.785 11.684 4.279 13.658.493 1.975-.33 4.608.164 6.254.658 1.81 2.633 3.291 3.291 4.772.659 1.481 5.925 12.013 8.228 15.633 1.975 2.798 7.9 13.988 10.697 19.912l.165.165c.493-.165 1.151-.494 1.645-.658 1.152-.494.987-.823-.494-1.152 1.152-.165 2.469-1.317 1.317-1.81 1.316-.659 2.468-2.14 1.316-2.469.823-.658 1.317-3.456 1.317-3.456s.329 1.646 1.481 2.798c-1.152 0 .165.658.658 1.152-.658.329.33.658.988 1.316-.988.33-.659.823.329 1.152-.659.494.493.823 1.48.33-.493.822-.987.822-.987.822s5.102-.493 7.735-2.304c2.633-1.81 1.645-2.468-.494-3.456 1.975-.658 6.912-2.139 5.266-3.62 1.317-.987-.494-1.645-2.14-1.975 5.925-1.316 6.254-2.303 5.596-2.633 3.126-1.81-.658-2.633-1.646-3.29 3.95.822 3.127-.494 2.633-1.482 3.291 1.481 3.456-1.975 2.14-2.962 1.316-.164 1.48-1.975-.494-3.127 3.291.33 5.266-.329 2.633-2.139 1.645-.658 1.81-1.48 1.152-2.14 1.81-1.151.658-2.303-.165-2.632 1.81-.823 1.646-2.798.658-3.291 1.481-1.81 2.14-5.925 2.14-5.925s0 3.292 2.304 4.773c-.823.822-.33 2.468.987 2.468-1.317 1.975-.494 2.633 1.81 2.962-.823 1.152-1.645 2.304 1.481 2.304-2.633 1.81-1.645 2.962.823 2.633-2.633.987-.987 2.633 1.81 2.14-1.975 1.48-1.975 3.126.988 2.632-2.798 1.481-3.127 3.456 1.316 3.292-1.481 0-2.962 3.95 2.633 5.1.494-4.442 2.14-35.05 2.468-40.481.165-6.253-.164-10.368-.164-10.368s-.494-.329-3.127-.164c-2.468.329-3.62 1.152-7.57-.165-3.95-1.316-4.607-.493-7.405-.164-2.468 0-3.785-.33-6.582.658-2.962 1.152-6.09-.33-7.406-1.481-1.316-.987 0-3.291 2.14-3.291 3.455.164-4.443-.33-7.076.658z" font-weight="400" fill="#99542c"/>
        <path d="M438.58 513.445h-.659l-.329-.165h-.823l-.329-.165h-.494l-.329-.164h-.493l-.494-.165-.494-.164h-.493l-.659-.165-.493-.164h-.659l-1.151-.33-1.152-.164-1.152-.33-1.152-.164-1.152-.164-.494-.165h-.658l-.494-.164h-.493l-.494-.165h-.494c-10.696-1.316-12.342-2.304-15.469-2.633-3.126-.164-4.278-.823-16.62-2.468-40.976-5.102-49.862-5.76-19.748-9.874 0 0 6.747-.823 21.558-2.304 13.33-1.48 46.406-4.443 66.318-2.962l-.494.33c-4.278 3.62-12.835 14.151-14.81 16.29-1.317 1.81-3.127 3.456-4.443 5.76-.33.165-.33.494-.659.659z" font-weight="400" fill="#ffffff"/>
        <path d="M236.663 539.61h.329l.164-.165h.165l.164-.164h.165l.33-.165h.328l.165-.164.329-.165h.329l.494-.164.329-.165.493-.165h.33l.493-.164.494-.165.494-.164.493-.165h.494l.494-.164.658-.165h.494l.658-.165.494-.164h.658l.658-.165h1.152l.658-.164c7.735-.33 6.583.493 13.988 1.152.823.329 2.633.329 4.443.658 1.81.33 5.43.33 8.064 1.152 2.468.987 6.088 2.797 8.228 3.291 2.139.33 3.62.823 5.43 1.481 1.81.494 2.633.988 4.279 1.646 1.645.658 5.924 2.304 9.873 3.126 3.95.988 6.583 1.152 9.545 1.81 2.962.823 8.886 1.81 11.355 2.798 3.456 1.646 8.722 3.95 11.025 6.253 2.304 2.633 3.456 3.127 5.266 10.368.988 3.456 0 4.608-.822 8.557-.823 3.95-1.481 5.101-.988 6.418.33 1.481.165 3.62-.329 4.937-.658 1.316-1.48 1.645-1.975 2.468-.493.823-2.303 2.14-2.303 2.14s-.988-.33-1.317-.988c-.33-.494-.494-1.152-.987-1.81-.33-.823-1.152-1.646-.988-2.468.165-.823-.493-1.317.33-2.798a9.287 9.287 0 0 0 1.48-2.468s1.152-2.469 1.482-4.114c.329-1.646.987-4.608.822-5.596-.164-.987-.493-3.62-.493-3.62l-1.481-1.975s-1.646-.658-2.14.659c-.493 1.81-.329 1.316-1.48 5.43-.824 2.962-.494 2.14-1.976 5.76-1.48 3.62-2.303 4.443-2.797 6.582-.494 2.14 2.798 4.279 3.62 7.9.823 3.949 1.481 5.265 2.14 6.088.493.987.493 1.975 1.151 2.14.659.164 1.646.328.823 2.632-.658 2.14-2.797 7.076-3.126 9.71-.33 2.468-.165 4.113-.33 4.278 0 .33-.493.33-.658.823-.164.329-.164.493-.164 1.316 0 1.152-.33 4.114-.33 4.114s.33 1.152-.987 1.152c-1.152-.164-7.405-.164-8.228-.164-.823-.165-2.304-.659-1.975-1.646.165-1.316.33-3.291.988-3.785.823-.329 1.81-.823 1.81-.823s.823-2.139 1.152-3.126c.329-1.152.494-2.633.987-3.456.33-.823.659-3.62.659-4.608 0-.823.164-4.443-2.14-7.57-1.975-3.126-1.152-2.962-2.962-4.114-1.81-1.152-4.443-2.797-6.747-2.962-1.48-.164-3.62.658-4.937 1.152-1.152.658-3.62 1.81-5.76 2.798-2.468 1.316-4.772 2.468-5.759 2.962-.823.493-1.646.164-1.81-.823-.165-.987 0-1.975-1.152-1.975-1.152.33-1.646.33-2.962.823-.988.33-2.469 1.481-3.127 3.291-.494 1.81-.823 1.975-1.481 3.95-.33 1.152-.823 2.304-2.14 3.455-.987.823-.822.33-3.126 2.469-1.81 1.646-1.81 1.81-2.962 3.785-.987 2.14-.823 3.456-1.152 4.114-.33.658-.165 1.81-.33 2.304 0 .658-.164 2.304-.164 2.304s0 1.48-.658 1.48c-2.797 0-6.253.165-7.57.165-1.152 0-1.645-.493-1.316-1.316.823-1.975 1.81-2.798 1.975-3.291.164-.494.658-3.456.164-5.431-.33-.823-2.304-3.456-2.633-4.114-.329-.494-.329-2.304-1.152-2.798-.987-.658-2.468-2.468-2.797-2.962-.33-.658-2.798-1.974-3.785-1.974-1.152 0-7.406-1.317-8.887-2.14-1.48-.823-6.088-3.291-6.911-3.785-.823-.493-3.62-1.974-4.443-1.974-.823 0-1.81-.33-2.798.822-1.81 1.646-2.468 1.646-3.291 2.469-.987.658-.823.823-1.481 1.645-.494.988-1.81 3.456-2.14 4.279-1.81 3.62-3.455 3.127-3.455 3.127s-1.646.822-4.114-3.127c-2.469-3.95-3.456-5.43-3.456-5.43s-1.481-1.152-2.468-.988c-.988.165-3.785.658-4.444.658-.822-.329-1.974.165-2.797-1.152-.823-1.316-1.81-3.126-1.646-5.924.33-2.633-.987-4.443-1.152-5.266-.164-.658-1.152-1.645-1.81-3.62-.658-1.81-.494-4.279-1.81-6.912-1.481-2.139-2.14-6.911-2.14-6.911s0-1.152.165-3.127c.33-2.14 0-3.785.658-6.418.494-2.468 1.152-4.278 3.292-5.924 1.48-.987 2.633-3.127 4.607-3.95 1.646-.658 3.785-2.303 5.266-2.303 1.481 0 1.975-.988 5.102-.494 2.962.658 5.266 1.317 7.24.987 1.81-.329 3.95-.329 5.596-2.797 1.81-2.304 3.29-4.608 4.114-5.102.658-.493 4.114-2.797 4.114-2.797zm-18.925 28.14h.987l.165.164h.494l.164.165h.33l.164.165h.329l.165.164.164.165.33.164.164.165h.164l.165.164v.165h.165l.164.164v.165l.165.165.164.164v.165l.165.164v.165l.164.164v.165l.165.165v.494l.164.164v1.316c4.114-3.62 3.785-6.582 3.785-6.582s.33-4.443-3.126-8.064c-3.62-3.456-4.114-1.974-3.785.494.329 2.468 1.152 3.127.164 4.937-.822 1.975-2.139 4.114-2.139 4.114zm-7.076 6.747v.164h-.165v.165l-.164.165v.164h-.165v.165h-.164l-.165.164v.165h-.165l-.164.164h-.165c-.493.33-1.48 1.646.165 1.975 1.81.33 2.304.165 3.62 0 1.646-.329 2.798-.494 3.62-.823.988-.164 1.81-1.81 0-2.139-2.303-.658-2.632-1.975-4.113-1.81-1.481 0-1.646.987-1.975 1.48z" font-weight="400" fill="#ffffff"/>
        <path font-weight="400" fill="#ffffff" d="M238.142 162.106h12.178l12.013 23.04h.164l-.164-23.04h8.722v34.065h-11.849L246.7 172.968l.329 23.203h-8.887v-34.065z"/>
        <path font-weight="400" fill="none" stroke="#ffffff" stroke-width=".56" stroke-miterlimit="10.433" d="M238.142 162.106h12.178l12.013 23.04h.164l-.164-23.04h8.722v34.065h-11.849L246.7 172.968l.329 23.203h-8.887v-34.065z"/>
        <path d="M288.993 162.106h11.684l13.658 34.064h-10.367l-2.633-7.24H287.84l-2.798 7.24H275.5l13.494-34.064zm5.924 7.076h-.165l-4.607 13.33h8.886l-4.114-13.33z" font-weight="400" fill="#ffffff"/>
        <path d="M288.993 162.106h11.683l13.66 34.064h-10.368l-2.633-7.24H287.84l-2.798 7.24H275.5l13.494-34.064zm5.924 7.076h-.165l-4.607 13.33h8.886l-4.114-13.33z" font-weight="400" fill="none" stroke="#ffffff" stroke-width=".553" stroke-miterlimit="10.433"/>
        <path font-weight="400" fill="#ffffff" d="M321.246 168.854h-8.722v-6.748h26.988v6.748h-8.722v27.317h-9.544v-27.317z"/>
        <path font-weight="400" fill="none" stroke="#ffffff" stroke-width=".56" stroke-miterlimit="10.433" d="M321.246 168.854h-8.722v-6.748h26.988v6.748h-8.722v27.317h-9.544v-27.317z"/>
        <path font-weight="400" fill="#ffffff" d="M344.614 196.17h9.544v-34.064h-9.544v34.065z"/>
        <path font-weight="400" fill="none" stroke="#ffffff" stroke-width=".56" stroke-miterlimit="10.433" d="M344.614 196.17h9.544v-34.064h-9.544v34.065z"/>
        <path d="M378.35 161.448h.987l1.152.164h.988l.987.165.987.164.823.33.988.164.822.33.823.328.823.33.658.329.823.493.658.494.658.494.494.493.658.494.494.658.494.494.494.658.493.658.33.823.493.659.33.822.328.823.165.823.329.823.165.823.164.987.165.823v1.974l.164.988c0 10.86-6.253 17.608-17.937 17.608-11.684 0-17.937-6.747-17.937-17.608s6.089-17.608 17.937-17.608zm0 28.469h.987l.494-.165h.494l.493-.164.33-.165.493-.164.33-.165.328-.329.494-.165.33-.329.328-.329.165-.164.329-.33.33-.493.164-.33.329-.329.164-.493.165-.33.33-.493.164-.33v-.493l.164-.493.165-.494.164-.494v-.493l.165-.494v-.988l.165-.493v-1.152c0-5.924-2.304-10.861-8.064-10.861-5.924 0-8.228 4.937-8.228 10.86 0 5.76 2.304 10.862 8.228 10.862z" font-weight="400" fill="#ffffff"/>
        <path d="M378.35 161.448h.987l1.152.164h.988l.987.165.987.164.823.33.988.164.822.33.823.328.823.33.658.329.823.493.658.494.659.494.493.493.658.494.494.658.494.494.494.658.493.658.33.823.493.659.33.822.328.823.165.823.329.823.165.823.164.987.165.823v1.974l.164.988c0 10.86-6.418 17.608-17.937 17.608-11.684 0-17.937-6.747-17.937-17.608s6.089-17.608 17.937-17.608zm0 28.633h.494l.493-.164h.494l.494-.165.493-.164h.33l.493-.33.33-.164.328-.164.494-.33.33-.164.328-.33.165-.328.329-.33.329-.329.165-.493.329-.33.164-.329.165-.493.329-.494.165-.33v-.493l.164-.493.165-.494.164-.494v-.493l.165-.494v-.988l.164-.493v-1.152c0-5.924-2.304-10.861-8.063-10.861-5.924 0-8.228 4.937-8.228 10.86 0 5.76 2.304 11.026 8.228 11.026z" font-weight="400" fill="none" stroke="#ffffff" stroke-width=".553" stroke-miterlimit="10.433"/>
        <path font-weight="400" fill="#ffffff" d="M402.21 162.106h12.013l12.178 23.04h.164l-.329-23.04h8.722v34.065h-11.849l-12.506-23.203.329 23.203h-8.722v-34.065z"/>
        <path font-weight="400" fill="none" stroke="#ffffff" stroke-width=".56" stroke-miterlimit="10.433" d="M402.21 162.106h12.013l12.178 23.04h.164l-.329-23.04h8.722v34.065h-11.849l-12.506-23.203.329 23.203h-8.722v-34.065z"/>
        <path d="M452.896 162.106h11.684l13.823 34.064h-10.367l-2.798-7.24h-13.33l-2.797 7.24h-9.71l13.495-34.064zm5.924 7.076h-.164l-4.608 13.33h8.886l-4.114-13.33z" font-weight="400" fill="#ffffff"/>
        <path d="M452.896 162.106h11.683l13.824 34.064h-10.368l-2.797-7.24h-13.33l-2.797 7.24h-9.71l13.495-34.064zm5.924 7.076h-.165l-4.607 13.33h8.886l-4.114-13.33z" font-weight="400" fill="none" stroke="#ffffff" stroke-width=".553" stroke-miterlimit="10.433"/>
        <path font-weight="400" fill="#ffffff" d="M482.68 162.106h9.38v27.318h14.811v6.747h-24.19v-34.065z"/>
        <path font-weight="400" fill="none" stroke="#ffffff" stroke-width=".56" stroke-miterlimit="10.433" d="M482.68 162.106h9.38v27.318h14.811v6.747h-24.19v-34.065z"/>
        <path d="M302.158 216.74h11.684c11.19 0 16.456 3.62 16.456 11.19 0 6.912-5.43 11.026-14.481 11.026h-3.95v11.849h-9.709V216.74zm9.71 15.798h2.632c3.456 0 6.089-1.152 6.089-4.772 0-3.456-2.633-4.608-6.089-4.608h-2.633v9.38z" font-weight="400" fill="#ffffff"/>
        <path d="M302.158 216.74h11.684c11.19 0 16.456 3.62 16.456 11.19 0 6.912-5.43 11.026-14.482 11.026h-3.95v11.849h-9.708V216.74zm9.709 15.798h2.633c3.455 0 6.089-1.152 6.089-4.772 0-3.456-2.634-4.608-6.09-4.608h-2.632v9.38z" font-weight="400" fill="none" stroke="#ffffff" stroke-width=".553" stroke-miterlimit="10.433"/>
        <path d="M342.475 216.74h12.013l14.152 34.064h-10.86l-2.634-7.24h-13.823l-2.962 7.24h-9.873l13.987-34.064zm5.924 6.912-4.772 13.494h9.216l-4.444-13.494z" font-weight="400" fill="#ffffff"/>
        <path d="M342.475 216.74h12.013l14.153 34.064h-10.862l-2.632-7.24h-13.824l-2.962 7.24h-9.873l13.987-34.064zm5.924 6.912-4.772 13.494h9.215l-4.443-13.494z" font-weight="400" fill="none" stroke="#ffffff" stroke-width=".553" stroke-miterlimit="10.433"/>
        <path d="M372.755 216.74h17.443c6.583 0 11.849 2.798 11.849 8.558 0 4.607-2.304 7.57-7.076 8.721 3.126.823 3.29 3.292 5.101 7.406l3.62 9.38H393.49l-1.975-6.254c-2.14-5.76-3.291-7.24-7.076-7.24h-1.975v13.494h-9.71V216.74zm9.709 14.153h2.633c3.127 0 7.076-.165 7.076-3.95 0-3.291-3.456-3.785-7.076-3.785h-2.633v7.735z" font-weight="400" fill="#ffffff"/>
        <path d="M372.755 216.74h17.443c6.583 0 11.849 2.798 11.849 8.558 0 4.607-2.304 7.57-7.076 8.721 3.126.823 3.29 3.292 5.101 7.406l3.62 9.38H393.49l-1.975-6.254c-2.14-5.76-3.291-7.24-7.076-7.24h-1.975v13.494h-9.71V216.74zm9.709 14.153h2.633c3.126 0 7.076-.165 7.076-3.95 0-3.291-3.456-3.785-7.076-3.785h-2.633v7.735z" font-weight="400" fill="none" stroke="#ffffff" stroke-width=".553" stroke-miterlimit="10.433"/>
        <path font-weight="400" fill="#ffffff" d="M408.628 216.74h9.71v13.989h.164l11.025-13.988h11.684l-13.494 15.798 14.646 18.266h-12.507l-11.354-15.469h-.165v15.47h-9.709V216.74z"/>
        <path font-weight="400" fill="none" stroke="#ffffff" stroke-width=".56" stroke-miterlimit="10.433" d="M408.628 216.74h9.71v13.989h.164l11.025-13.988h11.684l-13.494 15.798 14.646 18.266h-12.507l-11.354-15.469h-.165v15.47h-9.709V216.74z"/>
        <path d="m262.992 297.046.494.165.494.329.494.165.493.164.658.165.494.164.658.33h.659l.493.164.659.165.822.164h.659l.658.165h2.139c3.291 0 6.089-.494 6.089-3.292 0-6.417-17.28-2.303-17.28-14.646 0-8.228 8.558-10.367 15.963-10.367 3.456 0 6.912.33 9.38 1.152l-.658 7.076c-2.468-1.152-5.266-1.645-8.063-1.645-2.469 0-6.583.329-6.583 3.29 0 5.431 17.28 1.811 17.28 13.988 0 8.887-7.9 11.19-16.128 11.19-3.291 0-7.57-.493-10.696-1.48l.822-7.406z" font-weight="400" fill="#ffffff"/>
        <path d="m262.992 297.046.494.165.494.329.494.165.493.164.658.165.494.164.658.33h.659l.493.164.659.165.822.164h.659l.658.165h2.139c3.291 0 6.089-.494 6.089-3.292 0-6.417-17.28-2.303-17.28-14.646 0-8.228 8.558-10.367 15.963-10.367 3.456 0 6.912.33 9.38 1.152l-.658 7.076c-2.468-1.152-5.266-1.645-8.063-1.645-2.469 0-6.583.329-6.583 3.29 0 5.431 17.28 1.811 17.28 13.988 0 8.887-7.9 11.19-16.128 11.19-3.291 0-7.57-.493-10.696-1.48l.822-7.406z" font-weight="400" fill="none" stroke="#ffffff" stroke-width=".553" stroke-miterlimit="10.433"/>
        <path font-weight="400" fill="#ffffff" d="M294.916 271.375h25.672v6.418h-15.963v6.912h15.14v6.582h-15.14v7.57h16.456v6.582h-26.165v-34.064z"/>
        <path font-weight="400" fill="none" stroke="#ffffff" stroke-width=".56" stroke-miterlimit="10.433" d="M294.916 271.375h25.672v6.418h-15.963v6.912h15.14v6.582h-15.14v7.57h16.456v6.582h-26.165v-34.064z"/>
        <path d="M327.336 271.375h17.279c6.418 0 11.684 2.797 11.684 8.557 0 4.608-2.304 7.57-6.912 8.722 3.127.823 3.291 3.456 5.102 7.57l3.62 9.215h-10.203l-2.14-6.253c-1.81-5.76-3.126-7.241-6.746-7.241h-1.975v13.494h-9.709v-34.064zm9.71 14.152h2.467c3.127 0 7.077-.164 7.077-3.95 0-3.126-3.292-3.784-7.077-3.784h-2.468v7.734z" font-weight="400" fill="#ffffff"/>
        <path d="M327.336 271.375h17.279c6.418 0 11.684 2.797 11.684 8.557 0 4.608-2.304 7.57-6.912 8.722 3.127.823 3.291 3.456 5.101 7.57l3.62 9.215h-10.202l-2.14-6.253c-1.81-5.76-3.126-7.241-6.746-7.241h-1.975v13.494h-9.71v-34.064zm9.709 14.152h2.468c3.127 0 7.076-.164 7.076-3.95 0-3.126-3.29-3.784-7.076-3.784h-2.468v7.734z" font-weight="400" fill="none" stroke="#ffffff" stroke-width=".553" stroke-miterlimit="10.433"/>
        <path font-weight="400" fill="#ffffff" d="M360.247 271.375h10.367l8.064 26.66h.164l8.064-26.66h9.874l-12.343 34.064h-12.013l-12.177-34.064z"/>
        <path font-weight="400" fill="none" stroke="#ffffff" stroke-width=".56" stroke-miterlimit="10.433" d="M360.247 271.375h10.367l8.064 26.66h.164l8.064-26.66h9.874l-12.343 34.064h-12.013l-12.177-34.064z"/>
        <path font-weight="400" fill="#ffffff" d="M401.88 305.44h9.546v-34.065h-9.545v34.064z"/>
        <path font-weight="400" fill="none" stroke="#ffffff" stroke-width=".56" stroke-miterlimit="10.433" d="M401.88 305.44h9.546v-34.065h-9.545v34.064z"/>
        <path d="m449.605 304.616-.494.165-.658.164h-.494l-.493.165-.659.164h-.493l-.658.165h-.659l-.658.165h-.658l-.33.164h-1.645l-.329.165h-2.633c-9.71 0-20.9-4.608-20.9-17.28 0-12.012 8.887-17.772 20.9-17.772 3.62 0 7.24.658 10.696 1.646l-.658 7.405c-3.126-1.646-6.253-2.468-9.544-2.468-6.747 0-11.355 4.772-11.355 11.19 0 6.582 5.101 10.532 12.177 10.532 3.127 0 6.418-.823 9.051-1.646l.494 7.076z" font-weight="400" fill="#ffffff"/>
        <path d="m449.605 304.616-.494.165-.658.164h-.494l-.493.165-.659.164h-.493l-.658.165h-.659l-.658.165h-.658l-.33.164h-1.645l-.329.165h-2.633c-9.71 0-20.9-4.608-20.9-17.28 0-12.012 8.887-17.772 20.9-17.772 3.62 0 7.24.658 10.696 1.646l-.658 7.405c-3.126-1.646-6.253-2.468-9.544-2.468-6.747 0-11.355 4.772-11.355 11.19 0 6.582 5.101 10.532 12.177 10.532 3.127 0 6.418-.823 9.051-1.646l.494 7.076z" font-weight="400" fill="none" stroke="#ffffff" stroke-width=".553" stroke-miterlimit="10.433"/>
        <path font-weight="400" fill="#ffffff" d="M454.211 271.375h25.672v6.418h-15.962v6.912h15.14v6.582h-15.14v7.57h16.62v6.582h-26.33v-34.064z"/>
        <path font-weight="400" fill="none" stroke="#ffffff" stroke-width=".56" stroke-miterlimit="10.433" d="M454.211 271.375h25.672v6.418h-15.962v6.912h15.14v6.582h-15.14v7.57h16.62v6.582h-26.33v-34.064z"/>
    </g>
</svg>
